<?xml version="1.0" encoding="UTF-8" standalone="no"?>
<!-- Created with Inkscape (http://www.inkscape.org/) -->

<svg
   xmlns:dc="http://purl.org/dc/elements/1.1/"
   xmlns:cc="http://creativecommons.org/ns#"
   xmlns:rdf="http://www.w3.org/1999/02/22-rdf-syntax-ns#"
   xmlns:svg="http://www.w3.org/2000/svg"
   xmlns="http://www.w3.org/2000/svg"
   version="1.1"
   width="1098"
   height="1153"
   viewBox="0 0 309.88 325.41342"
   id="svg2"
   xml:space="preserve"
   style="fill-rule:evenodd"><metadata
   id="metadata141"><rdf:RDF><cc:Work
       rdf:about=""><dc:format>image/svg+xml</dc:format><dc:type
         rdf:resource="http://purl.org/dc/dcmitype/StillImage" /><dc:title></dc:title></cc:Work></rdf:RDF></metadata>
 <defs
   id="defs4"><style
     type="text/css"
     id="style6" /></defs>
 <g
   transform="matrix(0.08063769,0,0,0.08063769,115.42753,157.06207)"
   id="g4167"><path
     d="m 400.00002,120 0,-100 -19.99998,0 0,62.771393 L 340.00004,20 320,20 l 0,100 20.00004,0 0,-62.771393 40,62.771393 19.99998,0 z"
     id="path3381"
     style="fill:#ff0000;fill-opacity:1;fill-rule:evenodd;stroke:none" /><g
     id="g3007"><path
       d="m 0,20 20.00005,0 0,80.00004 40.00001,0 0,19.99996 L 0,120 0,20 z"
       id="path3365"
       style="fill:#9900cc;fill-opacity:1;fill-rule:evenodd;stroke:none" /><path
       d="m 80,20 60.00006,0 0,19.99998 -40.00002,0 0,20.00004 40.00002,0 0,19.99996 -40.00002,0 0,20.00004 40.00002,0 0,19.99998 L 80,120 80,20 z"
       id="path3371"
       style="fill:#9900cc;fill-opacity:1;fill-rule:evenodd;stroke:none" /><path
       d="m 230,20.00003 c 27.61001,0 49.99997,22.38996 49.99997,49.99997 0,27.61001 -22.38996,49.99997 -49.99997,49.99997 -27.61001,0 -50.00004,-22.38996 -50.00004,-49.99997 0,-27.61001 22.39003,-49.99997 50.00004,-49.99997 z M 230,0 c 38.654,0 70,31.346 70,70 0,38.654 -31.346,70 -70,70 -38.654,0 -70,-31.346 -70,-70 0,-38.654 31.346,-70 70,-70 z m 0.002,100.00001 c 16.56518,0 29.99959,-13.43441 29.99959,-30.00001 0,-16.5656 -13.43441,-30.00001 -29.99959,-30.00001 l -19.99961,0 0,20.00003 19.99961,0 c 5.5214,0 9.99956,4.47816 9.99956,9.99998 0,5.52182 -4.47816,9.99998 -9.99956,9.99998 l -19.99961,0 0,20.00003 19.99961,0 z"
       id="path3373"
       style="fill:#9900cc;fill-opacity:1;fill-rule:evenodd;stroke:none" /><path
       d="m 420,20 19.99998,0 0,100 L 420,120 420,20 z"
       id="path3367"
       style="fill:#9900cc;fill-opacity:1;fill-rule:evenodd;stroke:none" /><path
       d="m 520.00004,90.00004 c 0,5.52176 -4.47816,9.99998 -9.99998,9.99998 l -30.00004,0 0,-60.00004 30.00004,0 c 5.52182,0 9.99998,4.47822 9.99998,9.99998 l 0,40.00008 z m 20.00004,0 C 540.00008,106.56566 526.56566,120 510.00006,120 L 460,120 l 0,-100 50.00006,0 c 16.5656,0 30.00003,13.43434 30.00003,29.99996 l 0,40.00008 z"
       id="path3369"
       style="fill:#9900cc;fill-opacity:1;fill-rule:evenodd;stroke:none" /><path
       d="m 660.00005,90.00004 0,9.99998 40.00001,0 0,19.99998 L 640,120 640,90.00004 c 0,-16.5656 13.43443,-30.00002 30.00003,-30.00002 5.52182,0 9.99999,-4.47824 9.99999,-10.00006 0,-5.52176 -4.47817,-9.99998 -9.99956,-9.99998 L 640,39.99998 660.00005,20 l 10.00041,0 c 16.56518,0 29.9996,13.43436 29.9996,29.99996 0,16.5656 -13.43442,30.00002 -30.00003,30.00002 -5.52183,0 -9.99998,4.47824 -9.99998,10.00006 z"
       id="path3379"
       style="fill:#9900cc;fill-opacity:1;fill-rule:evenodd;stroke:none" /><path
       d="m 790,-5e-6 c -38.65993,0 -70,31.34007 -70,70 C 720,108.65993 751.34007,140 790,140 c 38.65993,0 70,-31.34007 70,-70.000005 0,-38.65993 -31.34007,-70 -70,-70 z m 0,20 c 27.61424,0 50,22.38576 50,50 C 840,97.614233 817.61424,120 790,120 c -27.61424,0 -50,-22.385767 -50,-50.000005 0,-27.61424 22.38576,-50 50,-50 z"
       id="path2993"
       style="fill:#9900cc;fill-opacity:1;stroke:none" /><path
       d="m 880,40 0,80 20,0 0,-100 z"
       id="path3383"
       style="fill:#9900cc;fill-opacity:1;fill-rule:evenodd;stroke:none" /><path
       d="m 920,20 0,60 30,0 c 5.5214,0 10,4.47818 10,10 0,5.52176 -4.4786,10 -10,10 l -30,0 20,20 10,0 c 16.56516,0 30,-13.43438 30,-30 0,-16.5656 -13.43484,-30 -30,-30 l -10,0 0,-20 40,0 0,-20 -60,0 z"
       id="path3375"
       style="fill:#9900cc;fill-opacity:1;fill-rule:evenodd;stroke:none" /></g></g><rect
   width="309.89066"
   height="325.41342"
   x="-0.0053318129"
   y="4.9070695e-007"
   id="rect10"
   style="fill:#ffffff" /><path
   d="m 246.69302,261.34635 c 0,0.5893 -0.0926,1.02131 -0.27697,1.29748 -0.18432,0.27553 -0.47033,0.41322 -0.85795,0.41322 -0.39433,0 -0.68186,-0.14001 -0.86323,-0.41922 -0.18136,-0.27921 -0.27249,-0.70818 -0.27249,-1.28772 0,-0.58322 0.0918,-1.01452 0.27545,-1.29301 0.18369,-0.27841 0.47042,-0.41769 0.86027,-0.41769 0.39362,0 0.68115,0.14152 0.86251,0.42449 0.18137,0.28297 0.27241,0.71051 0.27241,1.28245 z m -0.47561,0.58106 c 0.0188,-0.16113 0.0278,-0.35529 0.0278,-0.58106 0,-0.22353 -0.009,-0.4177 -0.0278,-0.5825 -0.0181,-0.16481 -0.0534,-0.30409 -0.10689,-0.41922 -0.0512,-0.11288 -0.1212,-0.19864 -0.21001,-0.25585 -0.0888,-0.0572 -0.2032,-0.0858 -0.34241,-0.0858 -0.13848,0 -0.25289,0.0286 -0.34321,0.0858 -0.0903,0.0572 -0.16176,0.14449 -0.21449,0.26033 -0.0504,0.10921 -0.0842,0.25065 -0.10232,0.42602 -0.0188,0.17464 -0.0278,0.36649 -0.0278,0.57498 0,0.22953 0.008,0.42145 0.0241,0.57578 0.0166,0.15424 0.0511,0.29273 0.10384,0.41465 0.0482,0.11521 0.11665,0.20249 0.20625,0.26265 0.0888,0.0602 0.20617,0.0903 0.35369,0.0903 0.13777,0 0.25209,-0.0286 0.34321,-0.0858 0.091,-0.0572 0.16177,-0.14448 0.21253,-0.26185 0.0508,-0.11738 0.0855,-0.25739 0.10351,-0.41843 z m 2.04183,0.43273 -0.62163,1.44429 -0.32209,0 0.38378,-1.44429 z m 2.23458,0.61412 c -0.14608,0.055 -0.31617,0.0828 -0.50801,0.0828 -0.17993,0 -0.35226,-0.0188 -0.51858,-0.0564 -0.16561,-0.0377 -0.30633,-0.0828 -0.42074,-0.13552 l 0,-0.46514 0.0309,0 c 0.12041,0.0761 0.26113,0.14153 0.42298,0.19497 0.16176,0.0534 0.32057,0.0806 0.47641,0.0806 0.10385,0 0.20545,-0.0151 0.3025,-0.0444 0.0978,-0.0294 0.1852,-0.0806 0.2612,-0.15432 0.0647,-0.0632 0.11361,-0.13849 0.14673,-0.22729 0.0331,-0.0881 0.0497,-0.19041 0.0497,-0.30633 0,-0.11289 -0.0196,-0.20849 -0.0587,-0.28673 -0.0383,-0.0775 -0.0926,-0.14001 -0.16177,-0.18737 -0.076,-0.0558 -0.16936,-0.0949 -0.27849,-0.11816 -0.10984,-0.0226 -0.23176,-0.0339 -0.36729,-0.0339 -0.12944,0 -0.25361,0.009 -0.37329,0.0264 -0.12041,0.0173 -0.22353,0.0354 -0.31009,0.0526 l 0,-1.69038 1.97567,0 0,0.38609 -1.55038,0 0,0.87227 c 0.0632,-0.006 0.12793,-0.01 0.19417,-0.0128 0.0662,-0.003 0.12336,-0.005 0.17152,-0.005 0.17841,0 0.33418,0.015 0.46738,0.0451 0.13401,0.0302 0.25665,0.0836 0.36881,0.1596 0.11745,0.0813 0.20849,0.18585 0.27321,0.31385 0.0647,0.12713 0.097,0.28745 0.097,0.46044 -2e-5,0.17299 -0.0278,0.3198 -0.0835,0.4594 -0.0557,0.13961 -0.13242,0.25697 -0.23367,0.35633 -0.10126,0.0994 -0.22766,0.17841 -0.37367,0.23329 z m -84.86815,39.12975 -1.37581,0 0,-0.39889 1.37581,0 z m 2.91034,-0.40489 c 0,0.5893 -0.0926,1.02131 -0.27697,1.29748 -0.18432,0.27553 -0.47033,0.41322 -0.85795,0.41322 -0.39433,0 -0.68186,-0.14001 -0.86323,-0.41922 -0.18136,-0.27921 -0.27249,-0.70818 -0.27249,-1.28772 0,-0.58322 0.0919,-1.01452 0.27545,-1.29301 0.18369,-0.27841 0.47042,-0.41769 0.86027,-0.41769 0.39362,0 0.68115,0.14152 0.86251,0.42449 0.18137,0.28297 0.27241,0.71051 0.27241,1.28245 z m -0.47561,0.58106 c 0.0188,-0.16113 0.0278,-0.3553 0.0278,-0.58106 0,-0.22353 -0.009,-0.4177 -0.0278,-0.5825 -0.0181,-0.16481 -0.0534,-0.30409 -0.10689,-0.41922 -0.0512,-0.11288 -0.1212,-0.19864 -0.21001,-0.25585 -0.0888,-0.0572 -0.2032,-0.0858 -0.34241,-0.0858 -0.13848,0 -0.25289,0.0286 -0.34321,0.0858 -0.0903,0.0572 -0.16176,0.14449 -0.21449,0.26033 -0.0504,0.10921 -0.0842,0.25065 -0.10232,0.42602 -0.0188,0.17464 -0.0278,0.36649 -0.0278,0.57498 0,0.22952 0.008,0.42145 0.0241,0.57578 0.0166,0.15424 0.0511,0.29273 0.10384,0.41465 0.0482,0.1152 0.11665,0.20249 0.20625,0.26265 0.0888,0.0602 0.20617,0.0903 0.35369,0.0903 0.13777,0 0.25209,-0.0286 0.34321,-0.0858 0.091,-0.0572 0.16177,-0.14449 0.21253,-0.26186 0.0508,-0.11737 0.0855,-0.25738 0.10351,-0.41842 z m 2.04183,0.43273 -0.62163,1.44429 -0.32209,0 0.38378,-1.44429 z m 2.23458,0.61412 c -0.14608,0.055 -0.31617,0.0828 -0.50801,0.0828 -0.17993,0 -0.35226,-0.0188 -0.51858,-0.0564 -0.16561,-0.0377 -0.30633,-0.0828 -0.42074,-0.13552 l 0,-0.46514 0.0309,0 c 0.12041,0.0761 0.26113,0.14153 0.42298,0.19497 0.16176,0.0534 0.32057,0.0806 0.47642,0.0806 0.10384,0 0.20544,-0.0151 0.30249,-0.0444 0.0978,-0.0294 0.1852,-0.0806 0.2612,-0.15432 0.0647,-0.0632 0.11361,-0.13849 0.14673,-0.22729 0.0331,-0.0881 0.0497,-0.19041 0.0497,-0.30633 0,-0.11289 -0.0196,-0.20849 -0.0587,-0.28673 -0.0383,-0.0775 -0.0926,-0.14001 -0.16177,-0.18737 -0.076,-0.0558 -0.16936,-0.0949 -0.27849,-0.11816 -0.10984,-0.0226 -0.23176,-0.0339 -0.36729,-0.0339 -0.12944,0 -0.25361,0.009 -0.37329,0.0264 -0.12041,0.0173 -0.22353,0.0354 -0.31009,0.0526 l 0,-1.69038 1.97567,0 0,0.38609 -1.55038,0 0,0.87227 c 0.0632,-0.006 0.12793,-0.01 0.19417,-0.0128 0.0662,-0.003 0.12336,-0.005 0.17153,-0.005 0.1784,0 0.33417,0.015 0.46737,0.0451 0.13401,0.0302 0.25665,0.0836 0.36881,0.15961 0.11745,0.0813 0.20849,0.18585 0.27321,0.31385 0.0647,0.12713 0.097,0.28745 0.097,0.46044 -2e-5,0.17298 -0.0278,0.31979 -0.0835,0.45899 -0.0557,0.14001 -0.13242,0.25737 -0.23368,0.35673 -0.10125,0.0994 -0.22765,0.17841 -0.37366,0.23329 z m 37.28358,-22.48725 c 0,0.5893 -0.0926,1.02131 -0.27697,1.29748 -0.18433,0.27553 -0.47034,0.41322 -0.85795,0.41322 -0.39434,0 -0.68187,-0.14001 -0.86323,-0.41922 -0.18137,-0.27921 -0.27249,-0.70818 -0.27249,-1.28772 0,-0.58322 0.0918,-1.01452 0.27545,-1.29301 0.18368,-0.27841 0.47041,-0.41769 0.86027,-0.41769 0.39361,0 0.68114,0.14152 0.86251,0.42449 0.18136,0.28297 0.27241,0.71051 0.27241,1.28245 z m -0.47562,0.58106 c 0.0188,-0.16113 0.0278,-0.35529 0.0278,-0.58106 0,-0.22353 -0.009,-0.4177 -0.0278,-0.5825 -0.0181,-0.16481 -0.0534,-0.30409 -0.10688,-0.41922 -0.0512,-0.11288 -0.12121,-0.19864 -0.21001,-0.25584 -0.0888,-0.0572 -0.20321,-0.0858 -0.34241,-0.0858 -0.13849,0 -0.25289,0.0286 -0.34321,0.0858 -0.0903,0.0572 -0.16177,0.14448 -0.21449,0.26032 -0.0504,0.10921 -0.0842,0.25065 -0.10233,0.42602 -0.0188,0.17465 -0.0278,0.36649 -0.0278,0.57498 0,0.22953 0.008,0.42145 0.0241,0.57578 0.0166,0.15424 0.0511,0.29273 0.10385,0.41465 0.0482,0.11521 0.11664,0.20249 0.20624,0.26265 0.0888,0.0602 0.20617,0.0903 0.3537,0.0903 0.13776,0 0.25209,-0.0286 0.34321,-0.0858 0.091,-0.0572 0.16176,-0.14448 0.21252,-0.26186 0.0508,-0.11737 0.0855,-0.25738 0.10351,-0.41842 z m 73.23524,-36.81855 0,-0.33489 0.68338,0 0,-2.20144 -0.68338,0 0,-0.29953 c 0.0926,0 0.19193,-0.007 0.29729,-0.0233 0.10608,-0.0151 0.18665,-0.0377 0.24081,-0.067 0.0678,-0.0369 0.1204,-0.0835 0.1596,-0.13992 0.0391,-0.0565 0.0617,-0.13249 0.0677,-0.22809 l 0.34169,0 0,2.9593 0.67058,0 0,0.33488 z m -160.86474,77.97709 -1.3758,0 0,-0.3989 1.3758,0 z m 0.95132,1.23732 0,-0.33489 0.68338,0 0,-2.20144 -0.68338,0 0,-0.29953 c 0.0926,0 0.19192,-0.008 0.29729,-0.0233 0.106,-0.0154 0.18672,-0.0377 0.24081,-0.067 0.0678,-0.0368 0.12048,-0.0835 0.1596,-0.13993 0.0391,-0.0564 0.0617,-0.13248 0.0677,-0.22809 l 0.3417,0 0,2.95931 0.67058,0 -1e-5,0.33488 z M 300.57112,117.74877 c 0,0.5893 -0.0926,1.02131 -0.27697,1.29748 -0.18433,0.27553 -0.47034,0.41322 -0.85795,0.41322 -0.39434,0 -0.68187,-0.14001 -0.86323,-0.41922 -0.18137,-0.27921 -0.27249,-0.70818 -0.27249,-1.28772 0,-0.58322 0.0918,-1.01452 0.27545,-1.29301 0.18368,-0.27841 0.47041,-0.41769 0.86027,-0.41769 0.39361,0 0.68114,0.14152 0.86251,0.42449 0.18136,0.28297 0.27241,0.71051 0.27241,1.28245 z m -0.47562,0.58106 c 0.0188,-0.16113 0.0278,-0.3553 0.0278,-0.58106 0,-0.22353 -0.009,-0.4177 -0.0278,-0.5825 -0.0181,-0.16481 -0.0534,-0.30409 -0.10688,-0.41922 -0.0512,-0.11288 -0.12121,-0.19864 -0.21001,-0.25585 -0.0888,-0.0572 -0.20321,-0.0858 -0.34241,-0.0858 -0.13849,0 -0.25289,0.0286 -0.34322,0.0858 -0.0903,0.0572 -0.16176,0.14449 -0.21448,0.26033 -0.0504,0.10921 -0.0842,0.25065 -0.10233,0.42602 -0.0188,0.17464 -0.0278,0.36649 -0.0278,0.57498 0,0.22952 0.008,0.42145 0.0241,0.57578 0.0166,0.15424 0.0511,0.29273 0.10385,0.41465 0.0482,0.1152 0.11664,0.20249 0.20624,0.26265 0.0888,0.0602 0.20617,0.0903 0.3537,0.0903 0.13776,0 0.25209,-0.0286 0.34321,-0.0858 0.091,-0.0572 0.16176,-0.14448 0.21253,-0.26186 0.0508,-0.11737 0.0855,-0.25738 0.1035,-0.41842 z m 2.04183,0.43273 -0.62162,1.44429 -0.32209,0 0.38377,-1.44429 z m 2.23458,0.61412 c -0.14609,0.055 -0.31617,0.0828 -0.50802,0.0828 -0.17993,0 -0.35225,-0.0188 -0.51858,-0.0564 -0.1656,-0.0377 -0.30633,-0.0828 -0.42073,-0.13552 l 0,-0.46514 0.0309,0 c 0.1204,0.0761 0.26113,0.14153 0.42297,0.19497 0.16177,0.0534 0.32057,0.0806 0.47642,0.0806 0.10384,0 0.20545,-0.0151 0.30249,-0.0444 0.0978,-0.0294 0.18521,-0.0806 0.26121,-0.15432 0.0647,-0.0632 0.1136,-0.13849 0.14672,-0.22729 0.0331,-0.0881 0.0497,-0.19041 0.0497,-0.30633 0,-0.11289 -0.0196,-0.20849 -0.0587,-0.28673 -0.0383,-0.0775 -0.0926,-0.14001 -0.16176,-0.18737 -0.076,-0.0558 -0.16937,-0.0949 -0.27849,-0.11816 -0.10985,-0.0226 -0.23177,-0.0339 -0.36729,-0.0339 -0.12945,0 -0.25361,0.009 -0.3733,0.0264 -0.1204,0.0173 -0.22353,0.0354 -0.31009,0.0526 l 0,-1.69038 1.97567,0 0,0.38609 -1.55037,0 0,0.87227 c 0.0632,-0.006 0.12792,-0.01 0.19416,-0.0128 0.0662,-0.003 0.12337,-0.005 0.17153,-0.005 0.1784,0 0.33417,0.015 0.46737,0.0451 0.13401,0.0302 0.25665,0.0836 0.36882,0.15961 0.11744,0.0813 0.20848,0.18585 0.27321,0.31385 0.0647,0.12713 0.097,0.28745 0.097,0.46043 -2e-5,0.17299 -0.0278,0.3198 -0.0835,0.4594 -0.0557,0.13961 -0.13243,0.25697 -0.23368,0.35633 -0.10125,0.0994 -0.22766,0.17841 -0.37366,0.23329 z m -16.71788,85.67415 -1.37581,0 0,-0.39889 1.37581,0 z m 2.91034,-0.40489 c 0,0.5893 -0.0926,1.02131 -0.27697,1.29748 -0.18432,0.27553 -0.47033,0.41322 -0.85795,0.41322 -0.39433,0 -0.68186,-0.14001 -0.86323,-0.41922 -0.18136,-0.27921 -0.27249,-0.70818 -0.27249,-1.28772 0,-0.58322 0.0919,-1.01452 0.27545,-1.29301 0.18369,-0.27841 0.47042,-0.41769 0.86027,-0.41769 0.39362,0 0.68115,0.14152 0.86251,0.42449 0.18137,0.28297 0.27241,0.71051 0.27241,1.28245 z m -0.47561,0.58106 c 0.0188,-0.16113 0.0278,-0.3553 0.0278,-0.58106 0,-0.22353 -0.009,-0.4177 -0.0278,-0.5825 -0.0181,-0.16481 -0.0534,-0.30409 -0.10689,-0.41922 -0.0512,-0.11288 -0.1212,-0.19864 -0.21001,-0.25585 -0.0888,-0.0572 -0.2032,-0.0858 -0.34241,-0.0858 -0.13848,0 -0.25289,0.0286 -0.34321,0.0858 -0.0903,0.0572 -0.16177,0.14449 -0.21449,0.26033 -0.0504,0.10921 -0.0842,0.25065 -0.10232,0.42602 -0.0188,0.17464 -0.0278,0.36649 -0.0278,0.57498 0,0.22952 0.008,0.42145 0.0241,0.57578 0.0166,0.15424 0.0511,0.29273 0.10384,0.41465 0.0482,0.11521 0.11665,0.20249 0.20625,0.26265 0.0888,0.0602 0.20617,0.0903 0.35369,0.0903 0.13777,0 0.25209,-0.0286 0.34321,-0.0858 0.0911,-0.0572 0.16177,-0.14448 0.21253,-0.26186 0.0508,-0.11737 0.0855,-0.25738 0.10351,-0.41842 z m 2.04183,0.43273 -0.62163,1.44429 -0.32209,0 0.38378,-1.44429 z m 2.23458,0.61412 c -0.14608,0.055 -0.31617,0.0828 -0.50802,0.0828 -0.17992,0 -0.35225,-0.0188 -0.51857,-0.0564 -0.16561,-0.0377 -0.30633,-0.0828 -0.42074,-0.13552 l 0,-0.46514 0.0309,0 c 0.12041,0.0761 0.26113,0.14153 0.42298,0.19497 0.16176,0.0534 0.32057,0.0806 0.47641,0.0806 0.10385,0 0.20545,-0.0151 0.30249,-0.0444 0.0978,-0.0294 0.18521,-0.0806 0.26121,-0.15432 0.0647,-0.0632 0.11361,-0.13849 0.14673,-0.22729 0.0331,-0.0881 0.0497,-0.19041 0.0497,-0.30633 0,-0.11289 -0.0196,-0.20849 -0.0587,-0.28673 -0.0383,-0.0775 -0.0926,-0.14001 -0.16177,-0.18737 -0.076,-0.0558 -0.16936,-0.0949 -0.27849,-0.11816 -0.10984,-0.0226 -0.23176,-0.0339 -0.36729,-0.0339 -0.12944,0 -0.25361,0.009 -0.37329,0.0264 -0.12041,0.0173 -0.22353,0.0354 -0.31009,0.0526 l 0,-1.69038 1.97567,0 0,0.38609 -1.55038,0 0,0.87227 c 0.0632,-0.006 0.12793,-0.01 0.19417,-0.0128 0.0662,-0.003 0.12336,-0.005 0.17152,-0.005 0.17841,0 0.33418,0.015 0.46738,0.0451 0.13401,0.0302 0.25665,0.0836 0.36881,0.15961 0.11745,0.0813 0.20849,0.18585 0.27321,0.31385 0.0647,0.12713 0.0971,0.28745 0.097,0.46043 -7e-5,0.17299 -0.028,0.3198 -0.0836,0.4594 -0.0556,0.13961 -0.13232,0.25697 -0.23358,0.35633 -0.10125,0.0994 -0.22765,0.17841 -0.37366,0.23329 z m 0.2179,-43.24501 c 0,0.58931 -0.0926,1.02132 -0.27697,1.29749 -0.18433,0.27553 -0.47034,0.41321 -0.85795,0.41321 -0.39433,0 -0.68186,-0.14 -0.86323,-0.41921 -0.18137,-0.27921 -0.27249,-0.70819 -0.27249,-1.28773 0,-0.58322 0.0918,-1.01451 0.27545,-1.293 0.18369,-0.27841 0.47042,-0.41769 0.86027,-0.41769 0.39361,0 0.68114,0.14152 0.86251,0.42449 0.18137,0.28297 0.27241,0.71051 0.27241,1.28244 z m -0.47562,0.58106 c 0.0188,-0.16112 0.0278,-0.35529 0.0278,-0.58106 0,-0.22352 -0.009,-0.41769 -0.0278,-0.5825 -0.0181,-0.1648 -0.0534,-0.30409 -0.10688,-0.41921 -0.0512,-0.11288 -0.1212,-0.19865 -0.21001,-0.25585 -0.0888,-0.0572 -0.2032,-0.0858 -0.34241,-0.0858 -0.13848,0 -0.25289,0.0286 -0.34321,0.0858 -0.0903,0.0572 -0.16177,0.14449 -0.21449,0.26033 -0.0504,0.1092 -0.0842,0.25065 -0.10232,0.42602 -0.0188,0.17464 -0.0278,0.36649 -0.0278,0.57497 0,0.22953 0.008,0.42146 0.0241,0.57578 0.0166,0.15425 0.0511,0.29273 0.10384,0.41466 0.0482,0.1152 0.11665,0.20249 0.20625,0.26265 0.0888,0.0602 0.20617,0.0903 0.35369,0.0903 0.13777,0 0.25209,-0.0286 0.34321,-0.0858 0.091,-0.0572 0.16177,-0.14449 0.21253,-0.26186 0.0508,-0.11737 0.0855,-0.25738 0.1035,-0.41843 z M 195.73623,13.366215 c 0,0.5893 -0.0926,1.021315 -0.27697,1.297484 -0.18433,0.27553 -0.47034,0.413215 -0.85795,0.413215 -0.39433,0 -0.68186,-0.140005 -0.86323,-0.419215 -0.18137,-0.27921 -0.27249,-0.708184 -0.27249,-1.287724 0,-0.58322 0.0918,-1.014515 0.27545,-1.293005 0.18369,-0.278409 0.47042,-0.417694 0.86027,-0.417694 0.39361,0 0.68114,0.141525 0.86251,0.424495 0.18137,0.282969 0.27241,0.710504 0.27241,1.282444 z m -0.47562,0.58106 c 0.0188,-0.161126 0.0278,-0.355293 0.0278,-0.58106 0,-0.223528 -0.009,-0.417695 -0.0278,-0.5825 -0.0181,-0.164806 -0.0534,-0.304091 -0.10688,-0.419215 -0.0512,-0.112884 -0.12121,-0.198647 -0.21001,-0.255849 -0.0888,-0.0572 -0.20321,-0.08584 -0.34241,-0.08584 -0.13849,0 -0.25289,0.02864 -0.34321,0.08584 -0.0903,0.0572 -0.16177,0.144485 -0.21449,0.260329 -0.0504,0.109204 -0.0842,0.250649 -0.10232,0.426015 -0.0188,0.174646 -0.0278,0.366493 -0.0278,0.57498 0,0.229528 0.008,0.421454 0.0241,0.57578 0.0166,0.154245 0.0511,0.29273 0.10384,0.414654 0.0482,0.115204 0.11664,0.202487 0.20625,0.262649 0.0888,0.06024 0.20616,0.09032 0.35369,0.09032 0.13776,0 0.25209,-0.02856 0.34321,-0.08576 0.091,-0.0572 0.16177,-0.144485 0.21253,-0.261889 0.0508,-0.117404 0.0855,-0.257409 0.1035,-0.418454 z m 2.04183,0.432734 -0.62162,1.444289 -0.32209,0 0.38377,-1.444289 z m 2.23458,0.614101 c -0.14609,0.05496 -0.31617,0.0828 -0.50802,0.0828 -0.17992,0 -0.35225,-0.0188 -0.51858,-0.0564 -0.1656,-0.03768 -0.30633,-0.0828 -0.42073,-0.135525 l 0,-0.465136 0.0309,0 c 0.1204,0.07608 0.26113,0.141525 0.42297,0.194967 0.16177,0.05344 0.32058,0.08056 0.47642,0.08056 0.10384,0 0.20545,-0.01512 0.30249,-0.0444 0.0978,-0.02936 0.18521,-0.08056 0.26121,-0.154325 0.0647,-0.0632 0.1136,-0.138485 0.14673,-0.227288 0.0331,-0.08808 0.0497,-0.190407 0.0497,-0.306331 0,-0.112884 -0.0196,-0.208487 -0.0587,-0.28673 -0.0383,-0.07752 -0.0926,-0.140005 -0.16177,-0.187366 -0.076,-0.05576 -0.16937,-0.09488 -0.27849,-0.118164 -0.10984,-0.02264 -0.23177,-0.03392 -0.36729,-0.03392 -0.12945,0 -0.25361,0.009 -0.3733,0.0264 -0.1204,0.01728 -0.22352,0.03536 -0.31009,0.05264 l 0,-1.690378 1.97567,0 0,0.386093 -1.55037,0 0,0.87227 c 0.0632,-0.0053 0.12792,-0.0098 0.19417,-0.0128 0.0662,-0.003 0.12336,-0.0045 0.17152,-0.0045 0.17841,0 0.33417,0.01504 0.46738,0.04512 0.134,0.03016 0.25665,0.0836 0.36881,0.159606 0.11744,0.08128 0.20849,0.185846 0.27321,0.313851 0.0647,0.127124 0.097,0.28745 0.097,0.460188 -2e-5,0.172738 -0.0278,0.319543 -0.0835,0.459148 -0.0557,0.139604 -0.13242,0.256968 -0.23367,0.356331 -0.10126,0.09936 -0.22767,0.178407 -0.37367,0.233289 z m 59.65523,27.948161 -1.37581,0 0,-0.398893 1.37581,0 z m 2.91034,-0.404894 c 0,0.589301 -0.0926,1.021316 -0.27697,1.297485 -0.18432,0.27553 -0.47033,0.413214 -0.85795,0.413214 -0.39433,0 -0.68186,-0.140004 -0.86323,-0.419214 -0.18136,-0.27921 -0.27249,-0.708184 -0.27249,-1.287724 0,-0.58322 0.0919,-1.014515 0.27545,-1.293005 0.18369,-0.278409 0.47042,-0.417694 0.86027,-0.417694 0.39362,0 0.68115,0.141525 0.86251,0.424494 0.18137,0.28297 0.27241,0.710505 0.27241,1.282444 z m -0.47561,0.58106 c 0.0188,-0.161125 0.0278,-0.355292 0.0278,-0.58106 0,-0.223527 -0.009,-0.417694 -0.0278,-0.5825 -0.0181,-0.164805 -0.0534,-0.30409 -0.10689,-0.419214 -0.0512,-0.112884 -0.1212,-0.198647 -0.21001,-0.255849 -0.0888,-0.0572 -0.2032,-0.08584 -0.34241,-0.08584 -0.13848,0 -0.25289,0.02864 -0.34321,0.08584 -0.0903,0.0572 -0.16176,0.144485 -0.21449,0.260329 -0.0504,0.109204 -0.0842,0.250649 -0.10232,0.426015 -0.0188,0.174646 -0.0278,0.366492 -0.0278,0.57498 0,0.229527 0.008,0.421454 0.0241,0.575779 0.0166,0.154246 0.0511,0.29273 0.10384,0.414655 0.0482,0.115204 0.11665,0.202487 0.20625,0.262649 0.0888,0.06024 0.20617,0.09032 0.35369,0.09032 0.13777,0 0.25209,-0.02856 0.34321,-0.08576 0.091,-0.0572 0.16177,-0.144485 0.21253,-0.261889 0.0508,-0.117404 0.0855,-0.257409 0.10351,-0.418455 z m 2.04183,0.432735 -0.62163,1.44429 -0.32209,0 0.38378,-1.44429 z m 2.23458,0.6141 c -0.14608,0.05496 -0.31617,0.0828 -0.50801,0.0828 -0.17993,0 -0.35226,-0.0188 -0.51858,-0.0564 -0.16561,-0.03768 -0.30633,-0.0828 -0.42074,-0.135524 l 0,-0.465136 0.0309,0 c 0.12041,0.07608 0.26113,0.141525 0.42298,0.194966 0.16176,0.05344 0.32057,0.08056 0.47641,0.08056 0.10385,0 0.20545,-0.01512 0.3025,-0.0444 0.0978,-0.02936 0.1852,-0.08056 0.2612,-0.154326 0.0647,-0.0632 0.11361,-0.138484 0.14673,-0.227287 0.0331,-0.08808 0.0497,-0.190407 0.0497,-0.306331 0,-0.112884 -0.0196,-0.208487 -0.0587,-0.28673 -0.0383,-0.07752 -0.0926,-0.140005 -0.16177,-0.187366 -0.076,-0.05576 -0.16936,-0.09488 -0.27849,-0.118164 -0.10984,-0.02264 -0.23176,-0.03392 -0.36729,-0.03392 -0.12944,0 -0.25361,0.009 -0.37329,0.0264 -0.12041,0.01728 -0.22353,0.03536 -0.31009,0.05264 l 0,-1.690378 1.97567,0 0,0.386093 -1.55038,0 0,0.87227 c 0.0632,-0.0053 0.12793,-0.0098 0.19417,-0.0128 0.0662,-0.003 0.12336,-0.0045 0.17153,-0.0045 0.1784,0 0.33417,0.01504 0.46737,0.04512 0.13401,0.03016 0.25665,0.0836 0.36881,0.159606 0.11745,0.08128 0.20849,0.185846 0.27321,0.313851 0.0647,0.127124 0.0971,0.287449 0.097,0.460187 -7e-5,0.172739 -0.0279,0.319544 -0.0836,0.459149 -0.0557,0.139605 -0.13237,0.256969 -0.2336,0.356333 -0.10123,0.09936 -0.22763,0.178406 -0.37364,0.233287 z M 229.31594,27.020124 c 0,0.589301 -0.0926,1.021316 -0.27697,1.297485 -0.18432,0.27553 -0.47033,0.413214 -0.85795,0.413214 -0.39433,0 -0.68186,-0.140004 -0.86323,-0.419214 -0.18136,-0.27921 -0.27248,-0.708184 -0.27248,-1.287724 0,-0.58322 0.0918,-1.014515 0.27545,-1.293005 0.18368,-0.278409 0.47041,-0.417694 0.86026,-0.417694 0.39362,0 0.68115,0.141525 0.86251,0.424494 0.18137,0.28297 0.27241,0.710505 0.27241,1.282444 z m -0.47561,0.58106 c 0.0188,-0.161125 0.0278,-0.355292 0.0278,-0.58106 0,-0.223527 -0.009,-0.417694 -0.0278,-0.5825 -0.0181,-0.164805 -0.0534,-0.30409 -0.10689,-0.419214 -0.0512,-0.112884 -0.1212,-0.198647 -0.21,-0.255849 -0.0888,-0.0572 -0.20321,-0.08584 -0.34242,-0.08584 -0.13848,0 -0.25288,0.02864 -0.34321,0.08584 -0.0903,0.0572 -0.16176,0.144485 -0.21448,0.260329 -0.0504,0.109204 -0.0842,0.250649 -0.10233,0.426015 -0.0188,0.174646 -0.0278,0.366492 -0.0278,0.57498 0,0.229528 0.008,0.421454 0.0241,0.575779 0.0166,0.154246 0.0511,0.292731 0.10385,0.414655 0.0482,0.115204 0.11664,0.202487 0.20624,0.262649 0.0888,0.06024 0.20617,0.09032 0.35369,0.09032 0.13777,0 0.25209,-0.02856 0.34322,-0.08576 0.091,-0.0572 0.16176,-0.144485 0.21252,-0.261889 0.0508,-0.117404 0.0855,-0.257409 0.10351,-0.418455 z m -60.83538,-23.0755136 0,-0.3348915 0.68339,0 0,-2.2014358 -0.68339,0 0,-0.2995303 c 0.0926,0 0.19193,-0.00792 0.29729,-0.023281 0.10601,-0.01544 0.18673,-0.037681 0.24081,-0.067042 0.0678,-0.036801 0.12049,-0.083523 0.15961,-0.1399248 0.0391,-0.056402 0.0617,-0.1324845 0.0677,-0.2280878 l 0.34169,0 0,2.9593018 0.67059,0 -10e-6,0.3348914 z m 132.52776,55.8016006 -1.3758,0 0,-0.398894 1.3758,0 z m 0.95132,1.237322 0,-0.334891 0.68338,0 0,-2.201436 -0.68338,0 0,-0.29953 c 0.0926,0 0.19192,-0.0075 0.29729,-0.02328 0.10608,-0.01512 0.18664,-0.03768 0.24081,-0.06704 0.0678,-0.03688 0.1204,-0.08352 0.1596,-0.139925 0.0391,-0.05648 0.0617,-0.132485 0.0677,-0.228088 l 0.3417,0 0,2.959302 0.67058,0 -10e-6,0.334889 z"
   id="текст"
   style="fill:#000000;fill-rule:nonzero" /><path
   d="m 153.55622,165.37425 c 56.21633,14.85755 93.144,49.84123 107.30129,83.40607 -60.00727,3.0069 -96.13771,10.73813 -143.28653,25.13398 C 100.46351,248.34222 79.420946,212.54419 59.064405,177.84379 44.022288,176.61327 34.4942,175.75972 18.351484,171.01852 29.043372,168.86837 40.02839,167.31487 51.851357,165.55089 36.179378,138.86005 21.255664,113.64879 9.2622914,95.263753 56.115584,75.279465 97.081313,49.229129 150.73836,10.864849 213.9831,21.763864 257.40203,41.898156 281.37486,72.380885 233.05111,111.73664 191.33496,142.0256 153.55606,165.37529 z"
   id="path13"
   style="fill:#000000" /><path
   d="m 136.10202,309.2448 1.30052,1.40836 m 7.66186,-5.89068 1.31621,1.39109 m 7.28865,-5.69348 1.33309,1.37237 m 6.99776,-6.21229 1.81246,1.79678 m 6.99568,-5.52779 1.36437,1.33789 m 6.85199,-5.44707 1.37877,1.32204 m 6.9124,-5.46811 1.39445,1.30485 m 6.83951,-5.42275 1.40877,1.28893 m 6.01277,-5.66292 1.90894,1.6927 m 6.30326,-5.13602 1.43877,1.25589 m 6.25197,-5.10234 1.45181,1.2414 m 6.06701,-5.00121 1.46621,1.22564 m 6.14982,-5.03393 1.48053,1.2098 m 5.45866,-5.36722 2.06768,1.63701 m 5.61467,-4.75016 1.50653,1.18108 m 5.84972,-4.90177 1.51965,1.16668 m 5.47379,-4.66376 1.53269,1.15228 m 5.44179,-4.59848 1.54574,1.13788 m -144.41857,70.31194 1.28356,1.42709 m 150.30357,-91.58315 1.55598,1.12036 m -0.61531,-8.27557 1.56518,1.10452 m -0.4813,-9.33032 1.57638,1.08524 m -1.24085,-9.28256 2.27408,1.49397 m -0.51418,-9.25856 1.59686,1.0502 m -0.55442,-8.98631 1.60814,1.03083 m -0.51018,-9.38592 1.61941,1.01164 m -0.53002,-9.30216 1.6307,0.99227 m -1.02283,-9.92866 2.16567,1.30092 m -0.51322,-9.55417 1.65214,0.95548 m -0.4777,-9.89434 1.66446,0.93443 m -0.46002,-10.09875 1.6767,0.91339 m -0.48057,-10.00962 1.68797,0.89403 m -1.14972,-10.5802 2.38777,1.23364 m -0.46178,-10.29516 1.71254,0.85195 m -0.45722,-10.406835 1.72582,0.829228 m -0.44273,-10.376837 1.73814,0.808108 m -0.40826,-10.910295 1.75142,0.785307 m -22.31348,155.413344 1.54573,1.13788 m 5.78484,-172.197923 0.23953,-1.903665 m -7.81235,-1.461891 0.22425,-1.904705 m -7.82115,-1.509252 0.20888,-1.905826 m -7.67826,-1.049716 0.21897,-2.367361 m -7.41698,-1.277564 0.18057,-1.907746 m -7.23777,-1.265884 0.1664,-1.908865 m -7.0588,-1.254203 0.15225,-1.909826 m -26.0289,-9.727055 0.10032,-1.913506 m -5.98148,-0.731305 0.0886,-1.914306 m -6.55766,-0.994914 0.0755,-1.915186 m -5.99677,-0.142885 0.10385,-2.502726 m -5.94485,-0.728665 0.052,-1.916946 m -5.34498,-0.463296 0.0414,-1.917746 m -5.92244,-0.727065 0.0296,-1.918466 m -5.32259,-0.461776 0.019,-1.9192658 M 292.92173,64.073 l 0.25609,-1.902466"
   id="path15"
   style="fill:none;stroke:#000000;stroke-width:0.28223193;stroke-miterlimit:4;stroke-dasharray:none" /><polygon
   points="208.037,198.069 347.741,300.104 148.636,399.891 29.0276,264.441 "
   transform="matrix(0.80002753,0,0,0.80002753,-0.00666755,-2.4531492e-4)"
   id="polygon17"
   style="fill:none;stroke:#000000;stroke-width:0.35277778;stroke-linejoin:round;stroke-miterlimit:4;stroke-dasharray:none" /><line
   style="fill:none;stroke:#000000;stroke-width:0.28224972"
   id="line19"
   y2="158.4604"
   x2="166.42867"
   y1="6.6007018"
   x1="169.23276"
   class="fil3 str0" /><path
   d="m 66.365456,178.5051 -5.606673,2.22471 c -0.564671,-0.96226 -1.129259,-1.92457 -1.693818,-2.8869 2.422644,0.19817 4.860647,0.41898 7.300491,0.66219 z"
   id="_153364872"
   style="fill:#85fd04;fill-opacity:1" /><path
   d="m 66.364976,178.5059 -5.606193,2.22471 c 2.359122,4.02062 4.725763,8.0514 7.092565,12.07546 7.00248,-3.67461 14.004961,-7.44258 21.007362,-11.36263 -7.245369,-1.20004 -14.878512,-2.17848 -22.493734,-2.93754 z"
   id="_153364800"
   style="fill:#74ff00;fill-opacity:1" /><path
   d="m 103.89131,184.4125 c -9.336484,7.23121 -18.861131,14.27425 -28.465302,21.23817 -2.519367,-4.25951 -5.046973,-8.54837 -7.57434,-12.84524 7.002481,-3.67461 14.004961,-7.44258 21.007362,-11.36263 5.268102,0.87259 10.330996,1.86198 15.03228,2.9697 z"
   id="_153364728"
   style="fill:#64ff01;fill-opacity:1" /><path
   d="m 103.89131,184.4133 c -9.336404,7.23121 -18.861371,14.27393 -28.465462,21.23785 2.723774,4.60512 5.437627,9.17552 8.13076,13.68495 10.45164,-10.80885 21.423862,-20.9744 31.179152,-31.92838 -3.30803,-1.07923 -6.95176,-2.07727 -10.84445,-2.99442 z"
   id="_153364656"
   style="fill:#55ff00;fill-opacity:1" /><path
   d="m 131.90987,178.24429 c -12.53291,18.5672 -25.59056,38.05667 -38.721331,57.08876 -3.167549,-5.21162 -6.384859,-10.55996 -9.632091,-15.99711 10.45164,-10.80885 21.423862,-20.9744 31.179152,-31.92838 0.10984,0.0358 0.22041,0.0715 0.32953,0.10753 5.53779,-2.93522 11.14919,-6.02277 16.84474,-9.2708 z"
   id="_153364584"
   style="fill:#45fe00;fill-opacity:1" /><path
   d="m 131.91067,178.24349 c -12.53307,18.56728 -25.59112,38.05707 -38.721971,57.08932 3.792211,6.23926 7.513061,12.28211 11.130301,18.04926 14.02056,-30.77025 26.14674,-56.01088 34.44463,-79.10056 -2.29808,1.34645 -4.58216,2.66697 -6.85296,3.96198 z"
   id="_153364512"
   style="fill:#36ff00;fill-opacity:1" /><path
   d="m 119.30392,273.38676 c -0.57626,0.17489 -1.15284,0.35009 -1.73238,0.52706 -4.20279,-6.2823 -8.64342,-13.18285 -13.25262,-20.53159 14.02056,-30.77025 26.14674,-56.01088 34.44463,-79.10056 1.53341,-0.89835 3.07274,-1.80822 4.61872,-2.72977 -5.60708,28.68307 -15.82095,68.68772 -24.07835,101.83486 z"
   id="_153364440"
   style="fill:#26ff00;fill-opacity:1" /><path
   d="m 119.30384,273.38676 c 7.26761,-2.20623 14.28129,-4.25278 21.17009,-6.14717 2.63857,-33.77964 4.40199,-74.42272 5.47194,-97.22334 -0.8565,0.51545 -1.71101,1.02723 -2.5636,1.53569 -5.60716,28.68303 -15.82111,68.68768 -24.07843,101.83482 z"
   id="_153364368"
   style="fill:#19fe01;fill-opacity:1" /><path
   d="m 140.47361,267.23935 c 5.66275,-1.55717 11.24174,-3.01194 16.80841,-4.36727 -3.6746,-34.65271 -8.10811,-71.98704 -9.33704,-94.06404 -0.66762,0.40466 -1.33412,0.80723 -1.99943,1.20777 -1.06995,22.80082 -2.83337,63.4439 -5.47194,97.22354 z"
   id="_153364296"
   style="fill:#08ff01;fill-opacity:1" /><path
   d="m 157.2825,262.8728 c 4.624,-1.1258 9.24032,-2.18279 13.88936,-3.17435 -9.91818,-36.32861 -18.58704,-73.03235 -22.25756,-91.47755 -0.32321,0.19657 -0.64603,0.39282 -0.96868,0.5881 1.22893,22.07644 5.66228,59.41077 9.33688,94.0638 z"
   id="_153364224"
   style="fill:#01ff07;fill-opacity:1" /><path
   d="m 171.17178,259.69749 c 4.13287,-0.88147 8.29269,-1.7107 12.50707,-2.4896 -19.09385,-42.36458 -28.29793,-70.57531 -33.65051,-89.66709 -0.3717,0.22697 -0.74291,0.45322 -1.11388,0.67898 3.67052,18.4456 12.33914,55.14926 22.25732,91.47771 z"
   id="_153340408"
   style="fill:#00ff17;fill-opacity:1" /><path
   d="m 150.0281,167.54152 c 5.35258,19.09162 14.55658,47.30235 33.65043,89.66709 3.59789,-0.66491 7.23593,-1.29341 10.93238,-1.88575 -18.84025,-32.24543 -36.24357,-63.42866 -43.93999,-88.17423 l -0.64282,0.39289 z"
   id="_153340336"
   style="fill:#00ff27;fill-opacity:1" /><path
   d="m 150.67132,167.14871 c 7.69642,24.74541 25.09966,55.92864 43.93991,88.17423 3.37684,-0.54106 6.80343,-1.05196 10.29155,-1.53397 -22.05548,-30.2552 -44.37432,-61.56628 -53.59264,-87.0318 l -0.63882,0.39154 z"
   id="_153340264"
   style="fill:#01ff27;fill-opacity:1" /><path
   d="m 151.30974,166.75669 c 9.21832,25.46536 31.53716,56.77644 53.59264,87.0318 3.25956,-0.4505 6.57271,-0.87603 9.95267,-1.27637 -25.87545,-28.76683 -52.93111,-61.17218 -63.25442,-85.93415 l -0.29089,0.17848 z"
   id="_153340192"
   style="fill:#00ff35;fill-opacity:1" /><path
   d="m 151.60095,166.57829 c 10.32331,24.76157 37.37897,57.16692 63.25442,85.93415 3.22571,-0.38201 6.51134,-0.74146 9.86674,-1.07883 -29.72431,-27.58647 -61.54156,-59.57413 -72.86555,-85.01173 l -0.25561,0.15689 z"
   id="_153340120"
   style="fill:#03fe53;fill-opacity:1" /><path
   d="m 151.85696,166.42148 c 11.32399,25.43768 43.14124,57.42534 72.86555,85.01173 3.42723,-0.34458 6.92959,-0.66555 10.51276,-0.96468 -34.09942,-26.20842 -70.79972,-58.16328 -83.11566,-84.20849 l -0.26281,0.16144 z"
   id="_153340048"
   style="fill:#01ff65;fill-opacity:1" /><path
   d="m 152.11937,166.25988 c 12.31578,26.04529 49.01608,58.00015 83.11566,84.20849 3.48572,-0.29097 7.05152,-0.56058 10.70365,-0.80986 -39.60601,-26.11994 -81.40761,-57.61103 -93.64323,-83.50688 l -0.17608,0.10849 z"
   id="_153339976"
   style="fill:#02fe75;fill-opacity:1" /><path
   d="m 152.29537,166.15187 c 12.2357,25.89617 54.03706,57.38726 93.64323,83.50688 4.15478,-0.28329 8.42413,-0.54002 12.82084,-0.77075 -43.29733,-23.35296 -92.20558,-55.55199 -106.16206,-82.92205 l -0.30185,0.18592 z"
   id="_153339904"
   style="fill:#01ff83;fill-opacity:1" /><path
   d="m 152.68179,165.91346 c 14.97835,28.06185 61.29299,52.91782 104.28519,74.69081 1.44428,2.72674 2.74353,5.45587 3.89069,8.17549 -0.70387,0.0353 -1.40141,0.0718 -2.09871,0.10832 -43.29733,-23.35296 -92.20558,-55.55199 -106.16206,-82.92205 l 0.0847,-0.0522 z"
   id="_153339832"
   style="fill:#04fd95;fill-opacity:1" /><path
   d="m 152.68179,165.91346 c 14.97835,28.06185 61.29299,52.91782 104.28519,74.69081 -1.65542,-3.12538 -3.50413,-6.24789 -5.5446,-9.35032 -44.52337,-18.27671 -87.1654,-42.84747 -98.8522,-65.27176 l 0.11153,-0.0687 z"
   id="_153339760"
   style="fill:#04fda1;fill-opacity:1" /><path
   d="m 152.58898,165.97107 c 11.81641,22.46661 52.56229,42.42378 92.9352,57.0642 2.11567,2.71585 4.0835,5.45915 5.89916,8.21876 -44.52337,-18.27671 -87.16539,-42.84747 -98.8522,-65.27176 l 0.0182,-0.0112 z"
   id="_153339688"
   style="fill:#05fcb5;fill-opacity:1" /><path
   d="m 152.58898,165.97107 c 11.81641,22.46661 52.56229,42.42378 92.9352,57.0642 -1.90006,-2.43912 -3.91909,-4.85593 -6.05853,-7.24097 -36.06972,-11.27735 -75.1053,-27.66359 -86.86539,-49.82979 l -0.0107,0.006 z"
   id="_153339616"
   style="fill:#02fec2;fill-opacity:1" /><path
   d="m 152.63379,165.94307 c 11.82616,21.88627 48.20125,34.58551 80.43316,43.16892 2.23792,2.19448 4.37151,4.42407 6.39742,6.68231 -36.06972,-11.27735 -75.1053,-27.66359 -86.86539,-49.82979 l 0.0347,-0.0214 z"
   id="_153339544"
   style="fill:#05fcd2;fill-opacity:1" /><path
   d="m 152.63379,165.94307 c 11.82616,21.88627 48.20125,34.58551 80.43316,43.16892 -2.05087,-2.01103 -4.1895,-3.99222 -6.41654,-5.93772 -37.96578,-7.74507 -64.33885,-19.40139 -74.01494,-37.23249 l -0.002,0.002 z"
   id="_153339472"
   style="fill:#0bf8df;fill-opacity:1" /><path
   d="m 152.43698,166.06467 c 9.8921,19.67412 45.95718,29.26117 67.34048,31.43964 2.3768,1.85126 4.6676,3.74341 6.87343,5.67028 -37.96578,-7.74507 -64.33885,-19.40139 -74.01494,-37.23249 l -0.19897,0.12257 z"
   id="_153338384"
   style="fill:#06faf0;fill-opacity:1" /><path
   d="m 152.43698,166.06467 c 9.8921,19.67412 45.95718,29.26117 67.34048,31.43964 -2.20032,-1.71382 -4.47528,-3.3918 -6.82064,-5.03161 -26.42283,-2.49937 -50.38773,-8.22237 -60.31375,-26.53492 l -0.20609,0.12689 z"
   id="_153338312"
   style="fill:#08f9f9;fill-opacity:1" /><path
   d="m 152.58098,165.97587 c 8.42229,16.02599 28.47738,21.58762 52.95743,21.59522 2.54784,1.58973 5.02121,3.22483 7.41905,4.90113 -26.42283,-2.49937 -50.38773,-8.22237 -60.31375,-26.53492 l -0.0627,0.0386 z"
   id="_153338240"
   style="fill:#0aedf8;fill-opacity:1" /><path
   d="m 205.53641,187.57021 c -16.18144,-0.006 -30.42921,-2.4368 -40.66268,-8.71334 11.86,5.2557 23.25152,5.09897 33.45875,4.45159 2.4648,1.37909 4.86432,2.80202 7.20393,4.26175 z"
   id="_153338144"
   style="fill:#06e1fd;fill-opacity:1" /><path
   d="m 163.29735,177.83867 c 8.03372,3.31348 17.41708,2.7073 26.77884,1.12964 2.82498,1.39405 5.57764,2.84202 8.25605,4.34039 -10.20747,0.6473 -21.59883,0.80379 -33.45923,-4.45207 -0.53618,-0.32889 -1.0618,-0.6677 -1.57566,-1.01796 z"
   id="_153338072"
   style="fill:#0ccbfb;fill-opacity:1" /><path
   d="m 162.31572,177.14425 c 5.4217,0.7097 11.33823,0.35313 18.40295,-2.47576 3.20315,1.36628 6.3223,2.80169 9.35808,4.29974 -9.36192,1.57766 -18.74536,2.18376 -26.77924,-1.12996 -0.33249,-0.22656 -0.6589,-0.45841 -0.98179,-0.69402 z"
   id="_153338000"
   style="fill:#06bff9;fill-opacity:1" /><path
   d="m 159.91004,175.22418 c 4.2047,-0.33129 7.86115,-1.66765 10.68164,-4.53687 3.46188,1.251 6.83952,2.57849 10.12707,3.98078 -7.0648,2.82897 -12.98165,3.1853 -18.40335,2.4756 -0.83451,-0.60914 -1.63662,-1.2486 -2.40536,-1.91951 z"
   id="_153337928"
   style="fill:#06b0fb;fill-opacity:1" /><path
   d="m 156.21551,171.44325 c 1.62797,-1.14396 2.92594,-2.5076 3.55532,-4.31766 3.69541,1.10187 7.30281,2.29103 10.82037,3.56212 -2.82049,2.86922 -6.4771,4.20558 -10.68172,4.53695 -1.33461,-1.16476 -2.56937,-2.42224 -3.69397,-3.78141 z"
   id="_153337856"
   style="fill:#09a3f3;fill-opacity:1" /><path
   d="m 156.21551,171.44245 c 1.62781,-1.14388 2.92602,-2.50752 3.55532,-4.31742 -2.04559,-0.60995 -4.11462,-1.19637 -6.21413,-1.75126 -0.32649,0.20176 -0.65275,0.40297 -0.9786,0.6037 1.03988,1.97806 2.2568,3.79645 3.63741,5.46498 z"
   id="_153337784"
   style="fill:#0396f5;fill-opacity:1" /><path
   d="m 40.173275,167.29111 12.613394,-0.1484 -0.935392,-1.5927 c -3.980617,0.59394 -7.866511,1.16412 -11.678002,1.7411 z"
   id="_153337664"
   style="fill:#0906fb;fill-opacity:1" /><path
   d="m 53.906788,169.05117 -32.948174,1.45517 c 6.254135,-1.19852 12.622914,-2.21695 19.213221,-3.21459 l 12.615074,-0.1484 1.119879,1.90782 z"
   id="_153337592"
   style="fill:#1800ff;fill-opacity:1" /><path
   d="m 53.906788,169.05117 -32.947614,1.45517 c -0.87115,0.16689 -1.74022,0.33745 -2.60721,0.51178 2.820177,0.82827 5.438267,1.53741 7.919313,2.15111 l 28.47642,-2.68513 -0.840909,-1.43293 z"
   id="_153337520"
   style="fill:#2604f6;fill-opacity:1" /><path
   d="m 54.747617,170.48402 -28.47634,2.68513 c 2.476405,0.61258 4.816085,1.12948 7.083443,1.57358 l 21.997157,-3.22891 -0.60426,-1.0298 z"
   id="_153337448"
   style="fill:#3303f1;fill-opacity:1" /><path
   d="m 55.351877,171.51366 -21.997397,3.22899 c 2.411443,0.47233 4.741444,0.86219 7.066484,1.19668 l 15.686859,-3.13739 -0.755946,-1.28828 z"
   id="_153321520"
   style="fill:#4401fe;fill-opacity:1" /><path
   d="m 56.107663,172.8017 -15.686699,3.13739 c 1.694218,0.24377 3.386276,0.45809 5.105615,0.6537 l 11.278308,-2.60273 -0.697224,-1.18836 z"
   id="_153321448"
   style="fill:#4f03fb;fill-opacity:1" /><path
   d="m 56.804807,173.99054 -11.278228,2.60273 c 2.104393,0.23929 4.250547,0.45042 6.492224,0.65266 l 5.742677,-1.62461 -0.956673,-1.63078 z"
   id="_153321376"
   style="fill:#5e00ff;fill-opacity:1" /><path
   d="m 57.76148,175.621 -5.742677,1.62461 c 2.235277,0.20161 4.565277,0.3945 7.046082,0.59746 L 57.76148,175.621 z"
   id="_153321304"
   style="fill:#7a01f7;fill-opacity:1" /><path
   d="M 59.025444,177.80267 C 79.25574,170.37754 104.21164,162.90856 123.3119,153.89169 l -3.23756,1.64614 c -17.04858,7.84275 -38.396917,15.18996 -56.900833,22.66206 -1.372848,-0.12601 -2.743055,-0.24505 -4.108542,-0.35674 l -0.03952,-0.0405 z"
   id="_153321208"
   style="fill:#7d0fee;fill-opacity:1" /><path
   d="m 115.47011,157.38517 4.60391,-1.84702 c -17.04866,7.84283 -38.396677,15.18996 -56.900593,22.66206 2.458724,0.22568 4.925369,0.47393 7.386014,0.74554 13.318298,-7.16272 28.625225,-14.15456 44.910669,-21.56058 z"
   id="_153321136"
   style="fill:#9803f7;fill-opacity:1" /><path
   d="m 115.47571,157.38197 -0.006,0.002 c -16.285444,7.40602 -31.592371,14.39786 -44.910669,21.56058 2.417203,0.26681 4.828406,0.55594 7.221208,0.86715 12.382266,-7.38209 27.260381,-15.87102 41.783761,-24.20267 -1.34053,0.59714 -2.70418,1.18788 -4.08886,1.77222 z"
   id="_153321064"
   style="fill:#9f02fc;fill-opacity:1" /><path
   d="m 119.56545,155.60991 c -14.52346,8.33173 -29.401655,16.82074 -41.784081,24.20283 2.544408,0.33097 5.067535,0.68699 7.55394,1.06844 12.582753,-9.29272 26.510831,-18.90241 41.413741,-28.66051 -2.29927,1.1546 -4.7008,2.2832 -7.1836,3.38924 z"
   id="_153320992"
   style="fill:#af03fb;fill-opacity:1" /><path
   d="m 95.360614,182.60124 c 11.928886,-11.37311 23.937626,-22.68886 36.904626,-33.32075 -1.76078,0.99884 -3.60228,1.97879 -5.51675,2.94018 -14.90291,9.75818 -28.830668,19.36763 -41.413421,28.66043 3.425398,0.52554 6.780954,1.09868 10.025545,1.72014 z"
   id="_153320920"
   style="fill:#c102fb;fill-opacity:1" /><path
   d="m 132.26508,149.28089 c -12.96684,10.63173 -24.97574,21.94756 -36.904466,33.32059 4.547837,0.87115 8.876786,1.83702 12.875726,2.89786 9.65249,-14.0304 19.80924,-29.11436 31.79053,-41.16774 -2.34328,1.7043 -4.94601,3.35196 -7.76179,4.94929 z"
   id="_153320848"
   style="fill:#d101fe;fill-opacity:1" /><path
   d="m 140.02695,144.33112 c -11.98129,12.05338 -22.13804,27.13734 -31.79053,41.16774 2.40376,0.63762 4.68872,1.30956 6.82879,2.01607 4.51624,-2.39377 9.08183,-4.88913 13.70175,-7.4901 5.02602,-14.30017 10.08547,-29.77783 14.95588,-38.62453 -1.1442,0.99563 -2.37856,1.97231 -3.69589,2.93082 z"
   id="_153320776"
   style="fill:#e002fc;fill-opacity:1" /><path
   d="m 143.72308,141.40062 c -4.87041,8.8467 -9.92986,24.32436 -14.95588,38.62453 6.77808,-3.81589 13.67343,-7.85947 20.70376,-12.1437 l -2.12672,-30.05423 c -1.07315,1.21876 -2.28456,2.40928 -3.62116,3.5734 z"
   id="_153320704"
   style="fill:#ef00ff;fill-opacity:1" /><path
   d="m 148.26723,136.72046 c 4.92865,-2.15663 11.63505,9.40976 17.95534,20.65967 -5.92961,3.80611 -10.98814,6.9879 -16.75162,10.50133 l -2.12672,-30.05431 c 0.0498,-0.0566 0.10265,-0.11249 0.15185,-0.16921 0.26225,-0.30217 0.52042,-0.61506 0.77114,-0.93747 z"
   id="_153320632"
   style="fill:#fc02fa;fill-opacity:1" /><path
   d="m 148.62485,136.24684 c 7.32929,-7.09024 20.80207,2.7825 32.32791,11.43832 -4.97985,3.34691 -9.88818,6.5771 -14.73019,9.69521 -6.32013,-11.24983 -13.02645,-22.8159 -17.9551,-20.65959 0.12105,-0.15577 0.24041,-0.31369 0.35738,-0.47394 z"
   id="_153313112"
   style="fill:#fb03f2;fill-opacity:1" /><path
   d="m 148.62485,136.24684 c 7.32929,-7.09024 20.80207,2.7825 32.32791,11.43832 4.27263,-2.87162 8.59782,-5.82884 12.97917,-8.87479 -16.00671,-6.17437 -34.80896,-14.28897 -44.95179,-3.06834 -0.11568,0.17056 -0.23417,0.33889 -0.35529,0.50481 z"
   id="_153313040"
   style="fill:#fe01e2;fill-opacity:1" /><path
   d="m 148.08931,136.80216 c 9.90114,-12.77284 29.35517,-4.35191 45.84246,2.00799 4.01469,-2.79105 8.07691,-5.65699 12.1881,-8.59861 -25.18743,-4.96578 -47.0485,-7.74667 -55.31911,4.49679 -0.7729,0.37945 -1.50101,0.88531 -2.17607,1.53829 -0.11601,0.15889 -0.23433,0.31537 -0.35426,0.46985 -0.0605,0.0265 -0.12112,0.0551 -0.18112,0.0857 z"
   id="_153312968"
   style="fill:#fe00d1;fill-opacity:1" /><path
   d="m 150.33211,134.9572 c 7.42481,-12.82468 29.37629,-16.62257 67.51432,-13.2443 -3.95414,2.90162 -7.86235,5.73372 -11.7268,8.49878 -25.18671,-4.96562 -47.04666,-7.74611 -55.31775,4.49615 -0.15856,0.0778 -0.31521,0.16057 -0.46977,0.24937 z"
   id="_153312896"
   style="fill:#fd01c4;fill-opacity:1" /><path
   d="m 230.65647,112.19098 c -4.32375,3.25355 -8.5931,6.4271 -12.80996,9.52152 -38.13803,-3.37827 -60.08951,0.41962 -67.51432,13.2443 -0.20801,0.11944 -0.41266,0.24849 -0.61311,0.38841 8.08208,-16.26072 39.21947,-22.38757 80.93739,-23.15423 z"
   id="_153312824"
   style="fill:#fd02b4;fill-opacity:1" /><path
   d="m 149.71448,135.34841 c 8.39949,-18.1735 41.65864,-28.05224 93.38802,-32.62936 -4.19927,3.23091 -8.34733,6.38758 -12.44603,9.47185 -41.71832,0.76666 -72.85571,6.89351 -80.93719,23.15423 l -0.005,0.003 z"
   id="_153312752"
   style="fill:#fd01a3;fill-opacity:1" /><path
   d="m 255.78773,92.85615 c -4.28078,3.362196 -8.50861,6.649269 -12.68563,9.86298 -51.72946,4.57712 -84.98853,14.45586 -93.38802,32.62936 -0.0378,0.0263 -0.075,0.0544 -0.11248,0.0815 13.37518,-29.88022 79.09584,-38.956696 106.18613,-42.57386 z"
   id="_153312680"
   style="fill:#fd0193;fill-opacity:1" /><path
   d="m 270.56024,81.125026 c -4.99433,4.008858 -9.91674,7.917953 -14.77163,11.731044 -27.09053,3.617164 -92.81119,12.69364 -106.18605,42.57387 -0.0843,0.061 -0.16873,0.12176 -0.25189,0.18648 12.48543,-29.25093 66.41673,-42.691708 121.20957,-54.491394 z"
   id="_153312608"
   style="fill:#fd0185;fill-opacity:1" /><path
   d="m 279.29734,69.826238 c 0.70739,0.843629 1.40157,1.694058 2.07792,2.554087 -3.64253,2.966502 -7.24697,5.880843 -10.81558,8.745181 C 215.767,92.925192 161.83594,106.36597 149.34991,135.6169 c -0.0157,0.0122 -0.031,0.0256 -0.0466,0.0379 8.74052,-23.75272 50.12059,-45.843165 129.99405,-65.828572 z"
   id="_153312536"
   style="fill:#fb0276;fill-opacity:1" /><path
   d="m 149.13366,135.79323 c 9.88826,-28.72227 56.87228,-51.930269 123.47785,-73.241803 2.36464,2.353121 4.59264,4.778165 6.68631,7.27417 -79.87322,19.985408 -121.25297,42.075853 -129.99407,65.828583 -0.0572,0.0453 -0.11376,0.092 -0.17033,0.13905 z"
   id="_153312464"
   style="fill:#ff0164;fill-opacity:1" /><path
   d="m 265.68168,56.187768 c 2.42696,2.060311 4.736,4.181904 6.92935,6.364139 -66.60557,21.311534 -113.58951,44.519533 -123.47785,73.241803 -0.0248,0.0206 -0.0502,0.0401 -0.0748,0.0611 7.02129,-23.26647 40.16507,-49.230404 116.62331,-79.667052 z"
   id="_153312392"
   style="fill:#ff0056;fill-opacity:1" /><path
   d="m 258.45743,50.487892 c 2.51336,1.845744 4.92177,3.745409 7.22457,5.700036 -76.4584,30.436648 -109.60218,56.400582 -116.62322,79.667062 -0.0631,0.0538 -0.1252,0.11024 -0.18752,0.16629 8.45437,-29.31361 50.57406,-57.723231 109.58617,-85.533388 z"
   id="_153312320"
   style="fill:#fd0146;fill-opacity:1" /><path
   d="m 251.53399,45.710928 c 2.39104,1.549573 4.69752,3.142108 6.92304,4.776404 -59.01227,27.810237 -101.13228,56.219858 -109.58617,85.533348 -0.074,0.0666 -0.14817,0.13232 -0.22105,0.20216 8.9023,-35.65946 65.8597,-70.656509 102.88418,-90.511912 z"
   id="_153312248"
   style="fill:#fe0036;fill-opacity:1" /><path
   d="m 148.61845,136.25484 c 6.64959,-31.39812 46.10582,-63.374417 95.26808,-95.193672 2.63641,1.505651 5.18705,3.054745 7.6481,4.64944 -37.02432,19.855483 -93.98164,54.852532 -102.88434,90.511912 -0.008,0.008 -0.0171,0.0152 -0.0254,0.0233 l -0.006,0.009 z"
   id="_153312176"
   style="fill:#fc0226;fill-opacity:1" /><path
   d="m 235.97425,36.809821 c 2.71962,1.375808 5.35731,2.792736 7.91204,4.251587 -49.16194,31.818935 -88.61825,63.795232 -95.26808,95.193672 -0.0662,0.0905 -0.13337,0.18041 -0.20077,0.26941 5.95808,-33.2503 46.61196,-68.474314 87.55681,-99.714669 z"
   id="_153287072"
   style="fill:#ff0018;fill-opacity:1" /><path
   d="m 148.35044,136.61246 c 4.78256,-32.46744 42.5237,-71.207575 79.61802,-103.62517 2.74369,1.236922 5.41186,2.511366 8.00539,3.823251 -40.94493,31.240115 -81.59881,66.464129 -87.55661,99.714629 l -0.0667,0.0876 z"
   id="_153287000"
   style="fill:#fe0008;fill-opacity:1" /><path
   d="m 219.68833,29.458368 c 2.8325,1.14036 5.59227,2.31672 8.28037,3.528602 -37.0944,32.417755 -74.83554,71.15789 -79.61802,103.62517 -0.0892,0.11632 -0.17953,0.23136 -0.27065,0.34517 4.97233,-32.71333 36.88487,-72.209487 71.6083,-107.498942 z"
   id="_153286928"
   style="fill:#fe0700;fill-opacity:1" /><path
   d="m 148.12243,136.90447 c 3.40596,-31.30124 32.4936,-74.942103 62.2271,-110.983023 3.19539,1.138599 6.30862,2.317359 9.33864,3.537161 -34.72343,35.289775 -66.63597,74.785932 -71.6083,107.498902 l 0.0426,-0.0532 z"
   id="_153286856"
   style="fill:#ff1700;fill-opacity:1" /><path
   d="m 148.09043,136.94447 c 2.63993,-33.24427 26.68268,-74.563289 53.12159,-114.098329 3.11778,0.989954 6.16317,2.014949 9.13751,3.074746 -29.7335,36.04108 -58.82114,79.681943 -62.2271,110.983023 l -0.032,0.0401 z"
   id="_153286784"
   style="fill:#fe2700;fill-opacity:1" /><path
   d="m 190.7531,19.731634 c 3.57156,0.997234 7.05824,2.03535 10.45892,3.115067 -26.43891,39.53472 -50.48166,80.853979 -53.12159,114.098329 -0.0957,0.11976 -0.19217,0.23801 -0.28961,0.35477 1.49117,-29.6369 20.74495,-74.38972 42.95228,-117.568166 z"
   id="_153286712"
   style="fill:#ff3600;fill-opacity:1" /><path
   d="m 147.78242,137.32128 c 0.0886,-4.38295 0.5438,-9.45413 1.19494,-14.67599 3.25316,-26.086097 14.60816,-62.197055 31.06841,-105.718313 3.65084,0.895711 7.21985,1.830223 10.70749,2.804017 -22.20733,43.178365 -41.46111,87.931026 -42.95228,117.568046 l -0.0186,0.0223 z"
   id="_153286640"
   style="fill:#ff4500;fill-opacity:1" /><path
   d="m 168.1808,14.212244 c 4.04742,0.861229 8.00044,1.767021 11.86481,2.715053 -16.46025,43.521258 -27.81525,79.632216 -31.06841,105.718313 -0.65114,5.22186 -1.10638,10.29304 -1.19494,14.67599 -0.0363,0.0435 -0.0729,0.0869 -0.10945,0.13004 -0.0258,-33.31646 9.99803,-78.795067 20.50799,-123.239396 z"
   id="_153286568"
   style="fill:#ff5500;fill-opacity:1" /><path
   d="m 154.76386,11.576953 c 4.57808,0.828669 9.05183,1.706139 13.41678,2.634891 -10.50996,44.444249 -20.53375,89.923096 -20.50799,123.239436 -0.057,0.0673 -0.1144,0.13385 -0.17184,0.20025 -0.74963,-26.80492 2.69225,-73.731336 7.26305,-126.074577 z"
   id="_153286496"
   style="fill:#fe6401;fill-opacity:1" /><path
   d="m 140.93922,17.831568 c 3.22115,-2.276718 6.48583,-4.598638 9.79938,-6.967839 1.35205,0.232968 2.69161,0.471936 4.02558,0.713384 -4.5708,52.342841 -8.01268,99.269017 -7.26605,126.077737 -0.0997,0.11437 -0.20229,0.22461 -0.30089,0.33537 -1.7637,-38.406879 -3.76017,-82.443754 -6.25802,-120.158652 z"
   id="_153286424"
   style="fill:#ff7300;fill-opacity:1" /><path
   d="M 147.1584,138.0333 C 143.31554,99.984395 136.8882,62.875278 128.70264,26.405463 c 4.01198,-2.784575 8.08772,-5.641634 12.23626,-8.573895 2.49785,37.715218 4.49432,81.751613 6.25838,120.158532 l -0.0389,0.0434 z"
   id="_153286352"
   style="fill:#fe8203;fill-opacity:1" /><path
   d="m 117.72618,33.948923 c 3.60957,-2.454485 7.26545,-4.967451 10.97646,-7.54306 8.18556,36.469895 14.6129,73.579012 18.45576,111.627837 -0.10161,0.11289 -0.20041,0.22641 -0.30401,0.3389 C 141.73157,104.60695 131.4661,69.672632 117.72618,33.948923 z"
   id="_153286280"
   style="fill:#ff9400;fill-opacity:1" /><path
   d="m 106.83165,41.269175 c 3.58796,-2.380322 7.21705,-4.819446 10.89477,-7.320252 13.73992,35.723949 24.00539,70.658267 29.12821,104.423597 -0.0902,0.0974 -0.18233,0.19448 -0.27385,0.29181 -7.11065,-35.16461 -22.92567,-67.951822 -39.74913,-97.395155 z"
   id="_153286208"
   style="fill:#fea201;fill-opacity:1" /><path
   d="m 96.99611,47.712597 c 3.24739,-2.098153 6.52478,-4.246227 9.83594,-6.442862 16.82346,29.443173 32.63848,62.230385 39.74913,97.395355 -0.0771,0.0814 -0.15521,0.16264 -0.23321,0.24368 C 140.1644,114.81419 124.60842,84.964758 96.99611,47.712597 z"
   id="_153278520"
   style="fill:#feb302;fill-opacity:1" /><path
   d="m 86.891843,54.140018 c 3.341235,-2.091912 6.706311,-4.232706 10.103547,-6.427661 27.61231,37.252481 43.16829,67.101913 49.35186,91.195933 -0.0882,0.0917 -0.17369,0.18401 -0.26329,0.27541 -8.88143,-27.897 -34.06965,-58.206599 -59.192117,-85.043682 z"
   id="_153278448"
   style="fill:#fec202;fill-opacity:1" /><path
   d="m 86.891843,54.140018 c -3.585164,2.244557 -7.142406,4.431112 -10.679808,6.562626 28.402175,24.460121 58.928745,50.763506 69.604315,78.748786 0.0892,-0.0891 0.17985,-0.178 0.26761,-0.26757 C 137.20253,111.2867 112.01431,80.977101 86.891843,54.140018 z"
   id="_153278376"
   style="fill:#ffd001;fill-opacity:1" /><path
   d="m 65.079572,67.263829 c 3.696127,-2.128073 7.404095,-4.314708 11.133343,-6.561745 28.402175,24.460121 58.928745,50.763506 69.604315,78.748786 -0.0935,0.0933 -0.18841,0.18633 -0.28357,0.27929 C 133.54353,113.4535 99.045701,90.169258 65.079572,67.263829 z"
   id="_153278304"
   style="fill:#fee102;fill-opacity:1" /><path
   d="m 52.575142,74.26335 c 4.162863,-2.262558 8.325966,-4.593838 12.50339,-6.999041 33.966369,22.905429 68.464198,46.189671 80.453968,72.466331 -0.11504,0.11265 -0.22761,0.22585 -0.34477,0.33793 -12.64536,-22.173 -50.756188,-43.886226 -92.612588,-65.80522 z"
   id="_153278232"
   style="fill:#ffef03;fill-opacity:1" /><path
   d="m 38.58186,81.605443 c 4.678241,-2.365842 9.336162,-4.810886 13.993682,-7.342173 41.85624,21.918994 80.078548,43.54304 92.724268,65.71604 -0.0582,0.0555 -0.23077,0.19951 -0.28945,0.25487 C 130.66295,120.09069 73.595065,95.711208 38.58186,81.605443 z"
   id="_153278160"
   style="fill:#ffff02;fill-opacity:1" /><path
   d="m 21.14286,90.008292 c 5.870042,-2.689133 11.670562,-5.485869 17.43908,-8.403009 35.013125,14.105765 92.08077,38.485247 106.42846,58.628737 -0.20544,0.19393 -0.41105,0.38769 -0.62334,0.58018 C 125.20044,119.52739 52.835151,100.12504 21.14286,90.008292 z"
   id="_153278088"
   style="fill:#f1fe00;fill-opacity:1" /><path
   d="M 143.59427,141.51422 C 123.47598,123.63049 49.126223,110.38379 14.44583,103.33875 12.665209,100.52385 10.935389,97.826721 9.2628514,95.262793 13.262109,93.556974 17.217925,91.806034 21.14294,90.007892 52.834751,100.12464 125.20012,119.52699 144.38718,140.8138 c -0.25897,0.23457 -0.52394,0.46794 -0.79291,0.70042 z"
   id="_153278016"
   style="fill:#e1fe03;fill-opacity:1" /><path
   d="m 14.44583,103.33875 c 3.026184,4.78401 6.199893,9.90962 9.492006,15.30549 35.862834,4.40103 99.954644,11.2423 119.006494,23.41856 0.21865,-0.1824 0.43706,-0.36489 0.64974,-0.54858 C 123.47598,123.63049 49.126223,110.38379 14.44583,103.33875 z"
   id="_153277944"
   style="fill:#d1ff00;fill-opacity:1" /><path
   d="m 23.938156,118.64448 c 2.690413,4.40967 5.460268,9.00047 8.293006,13.73239 37.160479,2.2624 91.887958,3.08675 109.926178,10.3298 0.26673,-0.21369 0.52954,-0.42818 0.78759,-0.64363 C 123.89232,129.88678 59.800991,123.04551 23.938156,118.64448 z"
   id="_153277872"
   style="fill:#c2ff01;fill-opacity:1" /><path
   d="m 32.230442,132.37727 c 2.477925,4.13918 5.004172,8.38653 7.56818,12.71652 38.920219,-1.66886 82.967658,-4.34207 100.500258,-0.96172 0.63946,-0.47065 1.2586,-0.94555 1.85746,-1.425 -18.03802,-7.24305 -72.765099,-8.0674 -109.925898,-10.3298 z"
   id="_153277800"
   style="fill:#b2ff01;fill-opacity:1" /><path
   d="m 39.799502,145.09363 c 2.338321,3.94885 4.708242,7.96603 7.101285,12.03217 17.15075,-2.37208 70.233773,-10.89429 91.046333,-11.34055 0.81131,-0.54522 1.59581,-1.0962 2.35272,-1.65334 -17.53292,-3.38035 -61.580358,-0.70714 -100.500338,0.96172 z"
   id="_153277728"
   style="fill:#a2ff00;fill-opacity:1" /><path
   d="m 46.900547,157.12532 c 2.369601,4.02622 4.735683,8.05484 7.100084,12.08418 20.975682,-5.88485 59.522369,-16.23632 77.589549,-19.5482 2.25848,-1.25988 4.38447,-2.55096 6.35686,-3.87653 -20.81248,0.44618 -73.895903,8.96839 -91.046493,11.34055 z"
   id="_153277656"
   style="fill:#94ff01;fill-opacity:1" /><path
   d="m 131.59146,149.6609 c -18.06758,3.3122 -56.615147,13.66375 -77.591069,19.54876 1.673017,2.85082 3.353315,5.71563 5.038253,8.58805 23.308162,-8.55397 52.887656,-17.16627 72.552816,-28.13681 z"
   id="_153277584"
   style="fill:#85fd04;fill-opacity:1" /><path
   d="m 164.87341,178.85631 c 11.8604,5.25586 23.25176,5.09937 33.45923,4.45207 m -35.03489,-5.47003 c 8.03372,3.31348 17.417,2.7073 26.77876,1.12964 m -27.76087,-1.82398 c 5.4217,0.7097 11.33823,0.35313 18.40287,-2.47576 m -20.80855,0.55593 c 4.20462,-0.33129 7.86107,-1.66765 10.68156,-4.53687 m -14.37561,0.75538 c 1.62797,-1.14396 2.92634,-2.50768 3.55572,-4.31758"
   id="path119"
   style="fill:none;stroke:#000000;stroke-width:0.28223193;stroke-miterlimit:4;stroke-dasharray:none" /><path
   d="m 153.52822,165.36225 c 56.23441,14.85275 93.1696,49.84691 107.33009,83.41807 -60.00727,3.0069 -96.13771,10.73813 -143.28653,25.13398 C 85.113382,225.39591 38.488897,140.06489 9.2632514,95.263353 56.116544,75.279065 97.082273,49.228729 150.73932,10.864449 213.98406,21.763464 257.40299,41.897756 281.37582,72.380485 216.06829,125.56824 162.82774,162.20038 115.06529,187.51565 c -14.56834,-4.80945 -35.81435,-8.0206 -56.000165,-9.67194 -15.042197,-1.23052 -24.570285,-2.08407 -40.713001,-6.82527 10.691968,-2.15015 21.677066,-3.70365 33.500113,-5.46763"
   id="path121"
   style="fill:none;stroke:#000000;stroke-width:0.28223193;stroke-linejoin:bevel;stroke-miterlimit:4;stroke-dasharray:none" /><path
   d="M 278.19571,240.09122 301.27346,65.861221 M 118.90638,319.92356 113.32267,127.43854 M 3.2164834,44.870099 23.216212,211.55983"
   id="path125"
   style="fill:none;stroke:#000000;stroke-width:0.28223193;stroke-miterlimit:4;stroke-dasharray:none" /><path
   d="m 152.58098,165.97667 c 8.42245,16.02567 28.47738,21.58722 52.95719,21.59482 M 152.64363,165.9381 c 9.92618,18.31215 33.891,24.03515 60.31359,26.53452 m -60.51968,-26.40763 c 9.89234,19.6738 45.95718,29.26077 67.34032,31.43924 M 152.63659,165.9425 c 9.67625,17.83086 36.04916,29.48702 74.0147,37.23201 m -75.97981,-36.0254 c 7.6965,24.74533 25.09966,55.92848 43.93983,88.17343 m -41.9768,-89.37907 c 11.8264,21.88603 48.20125,34.58511 80.43316,43.16852 M 152.5993,165.96491 c 11.76065,22.16596 50.79599,38.55212 86.86539,49.82939 M 152.5881,165.97147 c 11.81665,22.46645 52.56229,42.42346 92.9344,57.0638 m -92.9528,-57.0526 c 11.68728,22.42413 54.32891,46.99473 98.8522,65.27136 m -98.74019,-65.34001 c 14.97859,28.06161 61.29299,52.91742 104.28519,74.69033 m -104.37,-74.63816 c 13.95672,27.3703 62.86473,59.56909 106.16206,82.92205 M 152.29529,166.15179 c 13.16108,26.0812 54.03714,57.38702 93.64323,83.50688 M 152.11929,166.2598 c 12.31578,26.04521 49.01608,57.99999 83.11566,84.20849 M 151.85688,166.4214 c 11.32407,25.4376 43.14116,57.4251 72.86539,85.01173 m -73.12092,-84.85412 c 10.32339,24.76149 37.37897,57.16652 63.25418,85.93335 m -63.54507,-85.75495 c 9.2184,25.46528 31.53708,56.7762 53.5924,87.031 m -54.8742,-86.24697 c 5.35258,19.09162 14.55658,47.30227 33.65027,89.66629 m -34.76431,-88.98787 c 3.6706,18.44552 12.33914,55.14894 22.25724,91.47755 m -23.22624,-90.88873 c 1.22893,22.07668 5.66228,59.41077 9.33688,94.06324 m -11.33647,-92.85519 c -1.06995,22.8007 -2.83337,63.44354 -5.47194,97.22254 m 2.90826,-95.68729 c -5.60708,28.68291 -15.82103,68.68724 -24.07835,101.8347 m 19.45947,-99.10501 c -8.29781,23.08944 -20.42399,48.33007 -34.44447,79.10008 m 27.59127,-75.13802 c -12.53291,18.56712 -25.59088,38.05675 -38.721571,57.08876 M 114.73576,187.407 c -9.75529,10.95398 -20.727512,21.11953 -31.179152,31.92838 m 20.334782,-34.92312 c -9.336484,7.23121 -18.861371,14.27425 -28.465542,21.23817 M 88.85887,181.44248 c -7.002401,3.92005 -14.004881,7.6881 -21.007362,11.36271 m -1.485812,-14.30049 -5.606753,2.22479"
   id="path127"
   style="fill:none;stroke:#000000;stroke-width:0.28223193;stroke-miterlimit:4;stroke-dasharray:none" /><path
   d="m 80.208093,213.71751 c 25.985137,23.76842 58.472967,38.48092 93.544817,45.43676 M 98.214152,243.5531 c 13.409098,8.62309 30.247998,16.41912 48.484628,22.00795 m -33.08786,2.35976 c 3.00059,1.6715 6.16221,3.34348 9.34536,4.36439 m 111.93506,-21.78795 c 10.08466,-6.92375 12.61667,-17.01938 8.77854,-29.79062 m 12.97316,28.29537 c 1.0202,-2.02887 1.47765,-4.1515 1.37245,-6.3679 M 153.5383,167.67792 c 10.50156,1.93583 21.00336,5.32107 31.505,8.90167 m -117.661649,2.02863 c 27.60079,41.94608 82.109229,73.76806 135.925479,68.96701 25.6472,-2.28799 43.81607,-22.83678 15.22708,-48.14445 -13.36406,-11.83025 -34.65399,-22.55942 -63.27657,-29.20421 m -71.793915,10.37372 c 23.958905,33.23202 72.594655,61.13122 116.968025,55.77672 14.96955,-1.80638 35.71683,-17.07659 5.59939,-41.76 -9.89218,-8.10732 -26.87324,-16.72705 -49.34794,-22.6207 m -56.987317,11.47912 c 20.733437,25.08942 60.573927,46.53712 93.652827,42.83595 13.98064,-1.56421 28.38921,-13.80271 3.92349,-33.78548 -7.91251,-6.46254 -20.81968,-13.65103 -38.60709,-18.43911 m -42.69115,12.94556 c 17.39396,17.81469 47.58948,32.75329 71.18173,30.07376 12.02522,-1.36581 21.71867,-10.8031 2.72466,-26.36515 -6.07477,-4.97705 -15.74743,-10.58077 -29.24749,-14.89851 m -37.02735,7.05696 c 13.58614,14.53802 40.78044,27.80008 58.16208,25.634 9.70457,-1.17468 15.10404,-8.63886 0.74618,-20.4215 -4.24334,-3.48204 -10.69796,-7.26305 -19.48043,-10.45292 m -32.69184,1.47661 c 11.13646,11.43639 32.33919,23.2444 46.93073,21.30425 7.52954,-1.00107 8.71606,-6.60407 -1.22108,-14.78411 -2.71257,-2.23287 -6.58239,-4.50607 -11.64872,-6.65743 m -28.36578,-3.1273 c 6.75456,7.29201 20.33814,15.63373 29.99536,17.19619 14.7265,2.38256 10.22323,-8.16636 -0.33914,-12.86748 m -24.78125,-7.18177 c 4.26239,4.27095 12.18698,9.65145 19.0941,12.36402 7.58842,2.98011 13.66983,0.71771 3.81317,-6.81911 m -18.6936,-8.05356 c 3.0589,2.95274 8.28972,6.80088 12.81052,8.65054 4.43279,1.81366 7.44121,1.16188 4.28046,-2.08463 m -13.5895,-8.68006 c 1.8131,1.77782 4.7336,4.29415 7.10264,5.2245 1.57318,0.61778 2.42208,0.42033 2.41312,-0.0494"
   id="path129"
   style="fill:none;stroke:#000000;stroke-width:0.28223193;stroke-miterlimit:4;stroke-dasharray:none" /><path
   d="M 52.017443,177.24585 57.76124,175.621 m -12.236501,0.97227 11.279668,-2.60297 m -16.384723,1.94911 15.687499,-3.13747 m -22.753663,1.94063 21.997957,-3.22907 m -29.08148,1.65549 28.47722,-2.68521 m -33.785963,0.0221 32.945134,-1.45509 m -13.731753,-1.7595 12.612114,-0.1484"
   id="path131"
   style="fill:none;stroke:#000000;stroke-width:0.28223193;stroke-miterlimit:4;stroke-dasharray:none" /><path
   d="m 42.542397,176.23062 c -1.316526,-2.72657 2.645371,-5.8022 10.505961,-8.64134 m -22.874707,6.49279 c 2.161434,-2.61529 6.926398,-5.23298 13.752393,-7.35346 m -23.316482,4.93961 c 0.57826,-0.69954 1.534373,-1.18508 2.525927,-1.57061"
   id="path133"
   style="fill:none;stroke:#000000;stroke-width:0.28223193;stroke-miterlimit:4;stroke-dasharray:none" /><path
   d="m 149.71928,135.34521 c 8.08188,-16.26072 39.21927,-22.38757 80.93719,-23.15423 m -80.94199,23.15751 c 8.39949,-18.1735 41.65864,-28.05224 93.38802,-32.62936 m -93.50082,32.71089 c 13.3751,-29.88023 79.09576,-38.956706 106.18605,-42.57387 M 149.34967,135.6165 C 161.8353,106.36557 215.7666,92.924792 270.55944,81.125106 M 149.30327,135.65442 c 8.74054,-23.75273 50.12061,-45.843175 129.99407,-65.828583 M 149.13286,135.79347 C 159.02112,107.0712 206.00514,83.863201 272.61071,62.551667 M 149.05766,135.85459 c 7.0212,-23.26648 40.16498,-49.230414 116.62322,-79.667062 M 148.86966,136.02092 c 8.45437,-29.31357 50.57406,-57.723191 109.58617,-85.533348 M 148.64885,136.22332 c 8.90246,-35.65946 65.85986,-70.656509 102.88434,-90.511912 M 148.61765,136.25532 c 6.64959,-31.39812 46.10574,-63.374417 95.26808,-95.193672 m -95.46889,95.462482 c 5.9578,-33.25026 46.61176,-68.474274 87.55661,-99.714629 m -85.64222,98.146579 c 7.42481,-12.82468 29.37629,-16.62257 67.51432,-13.2443 M 150.801,134.70671 c 8.27109,-12.24226 30.13104,-9.46177 55.31775,-4.49615 M 70.558081,178.94487 c 11.428313,-6.14629 24.321077,-12.16682 38.039789,-18.43119 m -30.818421,19.2981 c 12.001133,-7.1548 26.346911,-15.34925 40.441791,-23.43264 m 62.72984,-8.69486 c -11.81209,-8.87119 -25.66968,-19.02362 -32.86321,-10.8831 m 45.84254,2.00823 c -16.48729,-6.3599 -35.9414,-14.78107 -45.84254,-2.00823 4.94441,-2.51992 11.73656,9.1924 18.13318,20.57831 m -70.861956,25.22079 c 11.822726,-11.27191 23.723936,-22.48742 36.558696,-33.03666 m -5.83236,3.09003 c -14.65354,9.60913 -28.355374,19.07145 -40.751721,28.22657 m 43.431731,-0.85627 c 4.9845,-14.18201 10.00179,-29.52078 14.83507,-38.40236 m 5.86885,26.25922 -2.126,-30.04431 m -39.10854,47.66172 c 9.54681,-13.87688 19.58755,-28.78387 31.39828,-40.77045 m 8.45613,-7.78418 c 2.63993,-33.24427 26.68268,-74.563289 53.12159,-114.098329 M 148.12123,136.90359 c 3.40596,-31.30124 32.4936,-74.942103 62.2271,-110.983023 M 148.07867,136.95719 C 153.051,104.2439 184.96354,64.747743 219.68697,29.458288 m 8.28037,3.528922 C 190.87294,65.404725 153.1318,104.14486 148.34948,136.61186 153.1322,104.1439 190.87334,65.403765 227.96766,32.98617 M 146.08292,139.18366 C 137.20149,111.28662 112.01327,80.977021 86.890803,54.139938 M 146.34621,138.90845 C 140.16264,114.81411 124.60666,84.964678 96.99435,47.712517 m 49.58507,90.952733 C 139.46877,103.50044 123.65375,70.713228 106.83029,41.269895 m 40.02298,97.103345 C 141.73045,104.60767 131.46498,69.673352 117.72506,33.949643 M 147.15728,138.03482 C 143.31442,99.985915 136.88708,62.876798 128.70152,26.406983 M 147.19616,137.99162 C 145.4321,99.584862 143.43563,55.547986 140.93778,17.833088 m 6.56191,119.820122 c -0.74963,-26.80508 2.69225,-73.731496 7.26305,-126.074737 M 147.67153,137.4524 c -0.0258,-33.3165 9.99803,-78.795107 20.50799,-123.239436 M 147.78098,137.322 c 0.0886,-4.38295 0.5438,-9.50001 1.19494,-14.72187 3.25316,-26.086094 14.60816,-62.151175 31.06841,-105.672433 M 147.79954,137.29984 c 1.49117,-29.63678 20.74495,-74.3896 42.95228,-117.568046 M 142.94313,142.0632 C 123.8908,129.88694 59.79947,123.04567 23.936636,118.64464 M 143.59275,141.51462 C 123.47446,123.63089 49.124703,110.38419 14.44431,103.33915 M 144.38558,140.8142 C 125.19892,119.52739 52.833631,100.12504 21.14134,90.008292 M 145.0088,140.23402 C 130.66143,120.09053 73.593545,95.711048 38.58034,81.605283 M 145.29789,140.00144 C 132.65233,117.82844 94.430022,96.182104 52.573622,74.26311 M 145.53122,139.7304 C 133.54121,113.45374 99.043381,90.169498 65.077252,67.264069 M 145.81523,139.45111 C 135.13966,111.46583 104.61309,85.162445 76.210915,60.702324 m 55.377505,88.959056 c -18.06718,3.31188 -56.613867,13.66335 -77.589549,19.5482 m 83.946089,-23.42473 c -20.81264,0.44626 -73.895663,8.96847 -91.046333,11.34055 M 140.29784,144.13151 C 122.765,140.75116 78.717561,143.42437 39.797582,145.09323 M 142.1555,142.70651 c -18.0383,-7.24305 -72.76538,-8.0674 -109.926178,-10.3298"
   id="path135"
   style="fill:none;stroke:#000000;stroke-width:0.28223193;stroke-miterlimit:4;stroke-dasharray:none" /><path
   d="M 77.780889,171.46005 C 67.871668,154.05658 64.180661,138.00474 66.091927,121.51274 72.240939,68.45475 130.87112,38.924294 179.68224,39.825925 c 23.09975,0.426495 55.70087,10.364197 51.94858,39.445438 -1.9395,15.031877 -20.27117,41.084057 -65.95827,64.941997 -32.55952,17.00266 -70.125609,26.36986 -87.891821,27.24661 z M 65.622871,175.7642 C 58.751354,163.45098 51.528306,147.43427 52.196329,128.23513 54.047833,75.035217 102.31645,43.127399 150.47011,32.759042 c 37.8985,-8.160681 94.87207,-0.965473 95.8729,35.516422 0.95275,34.727436 -52.16596,68.000736 -78.63495,80.288366 -39.75296,18.45439 -74.22079,26.38586 -102.085109,27.20013 z M 38.898351,143.57318 C 34.400036,110.27211 48.643887,82.454032 63.455276,68.194821 M 12.090309,99.638063 c 0.570499,-2.310559 1.632536,-4.748083 2.544327,-6.70567 m 8.98847,25.196387 c 1.925186,-12.46219 6.68303,-25.436156 12.353065,-35.215532 m 85.710949,72.640822 c -6.15989,-11.58568 -6.83167,-24.59917 -2.83898,-37.1948 5.57923,-17.60117 24.69893,-30.645617 41.09678,-30.770581 9.46296,-0.07208 18.7668,4.007498 17.99478,14.710021 -0.88851,12.31619 -15.98631,28.51875 -37.67882,41.97785 M 114.83544,158.322 c -7.1888,-13.91064 -8.48301,-27.82951 -4.39263,-41.34814 7.21201,-23.83538 32.16727,-38.502685 53.13207,-38.66221 12.09826,-0.092 24.01139,5.601152 22.93607,18.61936 -1.32228,16.00519 -23.14792,37.2508 -57.48718,54.21299 m -21.72234,10.51108 c -6.1191,-10.61037 -11.156629,-28.5501 -6.37454,-45.37012 8.14132,-28.635229 38.58132,-47.533639 66.527,-47.388194 13.22022,0.06872 29.78775,5.52539 28.53307,22.865506 -1.43517,19.831638 -34.39895,49.031448 -78.15693,64.794548 M 98.067987,164.1826 C 91.327915,154.33475 86.214059,131.86781 90.457645,115.96015 100.26318,79.2028 136.95901,59.421959 170.76841,59.597326 c 15.99359,0.08296 36.99807,5.761958 36.03204,26.799322 -1.25508,27.327822 -55.52191,64.724862 -108.732543,77.785952 z m -9.488566,3.31628 C 80.173452,156.20161 76.479484,133.85636 78.557316,119.88164 85.141303,75.600276 133.52313,48.98944 175.05984,49.758107 c 17.50876,0.323851 44.90274,6.585667 43.77758,31.236435 -1.38388,30.317688 -58.28944,72.691858 -130.257279,86.504578 z m 38.435239,-15.31373 c -4.14686,-9.99426 -4.67088,-21.06792 -1.41493,-30.42697 4.85081,-13.94328 17.2214,-24.500439 31.31852,-25.474472 7.21697,-0.498657 14.34626,3.063465 13.756,11.244942 -0.69099,9.57769 -13.44999,24.79222 -25.14103,32.20175 m -13.62279,9.83914 c -6.93512,-21.12377 3.67237,-37.56497 15.26397,-43.07612 7.36753,-3.50284 18.80184,-3.06347 16.56377,8.90303 -1.43277,7.6605 -8.70078,16.11463 -18.06278,24.19467 m -9.7969,7.63338 c -2.79162,-13.73039 0.25425,-24.52164 9.71577,-31.85534 4.30447,-3.33651 14.87323,-6.07852 12.86421,6.2387 -0.69147,4.23951 -7.94628,13.58415 -13.44815,18.62616 m -5.38786,4.5028 c -1.10484,-8.30597 0.10992,-15.0018 4.88641,-20.68432 3.45403,-4.10926 11.68392,-6.6339 9.49808,2.62801 -1.17564,4.51792 -4.62416,9.03575 -8.99663,13.55351 m -81.835613,37.96603 c 28.263212,-11.41296 63.160893,-22.53462 79.238883,-35.57595 2.00231,-1.62413 3.71293,-3.27835 5.08218,-4.96617 1.85846,-2.29096 3.66644,-5.02505 3.53412,-8.1198 -0.18649,-4.36327 -4.66712,-0.94235 -6.21949,1.86735 -1.78431,3.23059 -2.48561,8.01979 -2.40049,11.20686 m -31.82285,43.5323 c 4.1735,-0.61794 8.201,-1.67254 12.2049,-2.79818 M 94.992441,182.5314 c 17.657569,-2.62833 34.806559,-7.62755 51.862269,-13.06333 m 29.43541,-18.67041 c -27.972,13.52871 -65.92347,25.39208 -98.344985,29.0362 M 122.67515,30.566327 C 144.3975,22.637974 167.67974,18.910405 190.8119,19.747314 m -44.58906,-5.662995 c 3.17747,-1.042836 6.60511,-1.772941 10.283,-2.190555 m 102.28752,38.842297 c 8.62309,17.120109 -0.86779,35.156249 -11.16943,48.490788 m 28.4237,-22.523895 c 1.20188,-2.571928 1.98159,-5.53827 2.254,-8.046357"
   id="path137"
   style="fill:none;stroke:#000000;stroke-width:0.28223193;stroke-miterlimit:4;stroke-dasharray:none" />
<polygon
   points="211.542,8.2509 376.587,82.3237 141.656,159.293 4.0288,56.0855 "
   transform="matrix(0.80002753,0,0,0.80002753,-0.00666755,-2.4531492e-4)"
   id="polygon123"
   style="fill:none;stroke:#000000;stroke-width:0.35277778;stroke-linejoin:round;stroke-miterlimit:4;stroke-dasharray:none" /></svg>